<?xml version="1.0" encoding="UTF-8"?>
<svg id="Ebene_1" data-name="Ebene 1" xmlns="http://www.w3.org/2000/svg" viewBox="0 0 1030 1030">
  <defs>
    <style>
      .cls-1 {
        fill: #e4d1ff;
      }
    </style>
  </defs>
  <path class="cls-1" d="m773.227,269.063q.094-.094,0-.186c-2.339-140.46-117.253-253.877-258.275-253.877-142.519,0-258.368,115.85-258.368,258.369v699.521c0,23.208,18.809,42.11,42.11,42.11h310.959c29.944,0,57.924-8.046,82.067-22.177,24.705-14.224,45.292-34.811,59.515-59.516,14.13-24.143,22.178-52.122,22.178-82.068V273.369c0-1.405-.094-2.901-.187-4.305Zm-258.275-169.844c96.011,0,174.148,78.138,174.148,174.149s-78.138,174.24-174.148,174.24-174.148-78.23-174.148-174.24,78.138-174.149,174.148-174.149Zm94.701,831.56h-268.849v-288.873l286.814,286.814c-5.801,1.31-11.79,2.058-17.966,2.058Zm-268.849-407.903v-58.798c45.947,42.11,107.146,67.75,174.148,67.75s128.295-25.734,174.242-67.844v387.254c0,6.178-.749,12.166-2.059,17.967l-346.331-346.33Z"/>
</svg>