<?xml version="1.0" encoding="utf-8"?>
<!-- Generator: Adobe Illustrator 27.2.0, SVG Export Plug-In . SVG Version: 6.00 Build 0)  -->
<svg version="1.1" id="Ebene_1" xmlns="http://www.w3.org/2000/svg" xmlns:xlink="http://www.w3.org/1999/xlink" x="0px" y="0px"
	 viewBox="0 0 1920 1080" style="enable-background:new 0 0 1920 1080;" xml:space="preserve">
<style type="text/css">
	.st0{fill:#DFEDE9;}
	.st1{clip-path:url(#SVGID_00000055703067916825028460000004273240570467353240_);}
	.st2{fill:url(#SVGID_00000067208363998508460810000017345100383761545904_);}
	.st3{fill:url(#SVGID_00000011747693761024700450000007048863905262769286_);}
	.st4{fill:none;}
	.st5{clip-path:url(#SVGID_00000154409379166611388620000012795965204481372092_);}
	
		.st6{fill:url(#SVGID_00000129893366581825380010000001509396914225324679_);stroke:#FFFFFF;stroke-width:0.5;stroke-miterlimit:10;}
	.st7{fill:#FFFFFF;}
	.st8{fill:#1A292E;}
	.st9{clip-path:url(#SVGID_00000034051863417008180460000013865854690614451629_);}
	.st10{fill:#ECC09B;}
	.st11{fill:#ECBE98;}
	.st12{fill:#EBBE98;}
	.st13{fill:#EBBE97;}
	.st14{fill:#EABC96;}
	.st15{fill:#EABB94;}
	.st16{fill:#E9BB94;}
	.st17{fill:#E9BB93;}
	.st18{fill:#E7B993;}
	.st19{fill:#E7B891;}
	.st20{fill:#E7B790;}
	.st21{fill:#E4B68E;}
	.st22{fill:#E4B58C;}
	.st23{fill:#E4B48B;}
	.st24{fill:#E3B48B;}
	.st25{fill:#E4B48A;}
	.st26{fill:#E3B48A;}
	.st27{fill:#E2B188;}
	.st28{fill:#E2B087;}
	.st29{fill:#E1B086;}
	.st30{fill:#E0AF84;}
	.st31{fill:#E1AE84;}
	.st32{fill:#E0AD83;}
	.st33{fill:#E0AD82;}
	.st34{fill:#DFAC81;}
	.st35{fill:#DFAB80;}
	.st36{fill:#DDAA80;}
	.st37{fill:#DDA87F;}
	.st38{fill:#DDA97E;}
	.st39{fill:#DDA87D;}
	.st40{fill:#DCA77C;}
	.st41{fill:#DCA67A;}
	.st42{fill:#DCA578;}
	.st43{fill:#DBA476;}
	.st44{fill:#DBA375;}
	.st45{fill:#D9A274;}
	.st46{fill:#D9A273;}
	.st47{fill:#D9A172;}
	.st48{fill:#D89F71;}
	.st49{fill:#D79E6F;}
	.st50{fill:#D79E6E;}
	.st51{fill:#D69D6D;}
	.st52{fill:#D69C6C;}
	.st53{fill:#D49A6B;}
	.st54{fill:#D3996A;}
	.st55{fill:#D39869;}
	.st56{fill:#D29767;}
	.st57{fill:#D29667;}
	.st58{fill:#D29664;}
	.st59{fill:#D19563;}
	.st60{fill:#D19462;}
	.st61{fill:#D09461;}
	.st62{fill:#D09360;}
	.st63{fill:#CE925F;}
	.st64{fill:#D0915E;}
	.st65{fill:#CE8F5D;}
	.st66{fill:#CE8F5B;}
	.st67{fill:#CC8E5A;}
	.st68{fill:#CC8D5A;}
	.st69{fill:#CC8D59;}
	.st70{fill:#CC8C57;}
	.st71{fill:#CB8B56;}
	.st72{clip-path:url(#SVGID_00000108291857415969347860000016384948915780344456_);}
	.st73{fill:url(#SVGID_00000076582330971542723430000015696677435619579056_);}
	.st74{fill:#2A3D43;}
	.st75{fill:#426168;}
	.st76{fill:#E5C0A1;}
	.st77{clip-path:url(#SVGID_00000094603557064606441480000009811265176733714570_);}
	.st78{fill:url(#SVGID_00000054233377992570158170000010254354282218980768_);}
	.st79{fill:#57848C;}
	.st80{fill:#88661B;}
	.st81{fill:#D8AC50;}
	.st82{fill:#2D1C12;}
	.st83{fill:#25373A;}
	.st84{clip-path:url(#SVGID_00000038382850838164500200000001473080873767043977_);}
	.st85{fill:#293C42;}
	.st86{fill:#283B41;}
	.st87{fill:#273A40;}
	.st88{fill:#26383E;}
	.st89{fill:#25373E;}
	.st90{fill:#25363D;}
	.st91{fill:#25363C;}
	.st92{fill:#24353B;}
	.st93{fill:#23343A;}
	.st94{fill:#223338;}
	.st95{fill:#203136;}
	.st96{fill:#203035;}
	.st97{fill:#1F3035;}
	.st98{fill:#1E2F34;}
	.st99{fill:#1D2E33;}
	.st100{fill:#1C2C31;}
	.st101{fill:#1C2B30;}
	.st102{fill:#1C2A2F;}
	.st103{fill:#14171F;}
	.st104{fill:#8C8C8C;}
	.st105{fill:#BF8152;}
	.st106{fill:#70A8B1;}
	.st107{clip-path:url(#SVGID_00000169533552390210702030000007899153756107173286_);}
	.st108{fill:url(#SVGID_00000128485284099852962400000015662336675288827037_);}
	.st109{clip-path:url(#SVGID_00000152951481450032368430000011900507805611584411_);}
	.st110{fill:url(#SVGID_00000152230497552040679990000005089634440338894761_);}
	.st111{fill:#261710;}
</style>
<rect x="-4" y="-3" class="st0" width="1924" height="1079.7"/>
<g>
	<defs>
		<path id="SVGID_1_" d="M1560.8-3c0,1,0,2.1,0,3.1c0,46.8,9.2,92.3,27.4,135.3c17.5,41.4,42.5,78.5,74.3,110.3
			c31.8,31.8,68.9,56.8,110.3,74.3c43,18.2,88.5,27.4,135.3,27.4c5,0,9.9-0.1,14.9-0.3V-3H1560.8L1560.8-3z"/>
	</defs>
	<clipPath id="SVGID_00000116199245368959695230000015737047371862104714_">
		<use xlink:href="#SVGID_1_"  style="overflow:visible;"/>
	</clipPath>
	<g style="clip-path:url(#SVGID_00000116199245368959695230000015737047371862104714_);">
		
			<radialGradient id="SVGID_00000072275406948065742530000016575012293698408863_" cx="961.2571" cy="663.3505" r="0.7074" gradientTransform="matrix(490.826 0 0 490.826 -469901.875 -325589.5938)" gradientUnits="userSpaceOnUse">
			<stop  offset="0" style="stop-color:#D6AC51"/>
			<stop  offset="0.12" style="stop-color:#D7AE56"/>
			<stop  offset="0.278" style="stop-color:#DBB667"/>
			<stop  offset="0.457" style="stop-color:#E1C382"/>
			<stop  offset="0.651" style="stop-color:#EAD5A8"/>
			<stop  offset="0.855" style="stop-color:#F5ECD8"/>
			<stop  offset="1" style="stop-color:#FFFFFF"/>
		</radialGradient>
		
			<rect x="1560.8" y="-3" style="fill:url(#SVGID_00000072275406948065742530000016575012293698408863_);" width="362.2" height="350.4"/>
	</g>
</g>
<linearGradient id="SVGID_00000104705325554938697490000005094651676043719351_" gradientUnits="userSpaceOnUse" x1="-5.741" y1="136.5884" x2="1925.741" y2="136.5884" gradientTransform="matrix(1 0 0 -1 0 1082)">
	<stop  offset="0" style="stop-color:#2C4C39"/>
	<stop  offset="1" style="stop-color:#417355"/>
</linearGradient>
<path style="fill:url(#SVGID_00000104705325554938697490000005094651676043719351_);" d="M1925.7,1087.2H-5.7V816.6
	c516.7-57.2,1351.9,95.2,1931.5,52.1L1925.7,1087.2L1925.7,1087.2z"/>
<path class="st4" d="M774.7,167.5c52.2,123.4,126.7,234,221.6,328.8"/>
<g>
	<defs>
		<path id="SVGID_00000034056119566511783150000006481375341150927234_" d="M892.1,646.4c-1.3,0.2-2.6,0.4-2.8,0.4
			c-1.1,0-2,0.8-2,1.9c0,0.7-1.1,235.9-8,258.5c0,0.1-0.1,0.1-0.2,0.1h0c-4.6,0.1-135.1,2.8-137.2,19.7
			c-1.4,10.8,68.5,19.8,153.1,19.8s152.7-8.9,153.1-19.8c0.6-16.6-137.4-18.1-143.7-19.7c0,0,0,0-0.1,0c-0.1,0-0.1-0.1-0.1-0.1
			c-6.9-25.6-5.1-239.7-5.4-257.9c0-1,0-1.9-0.1-2.5c0-0.7-1.8-0.8-3.4-0.9h0C894.8,645.9,893.4,646.2,892.1,646.4"/>
	</defs>
	<clipPath id="SVGID_00000178188122499381286430000017970713859699001527_">
		<use xlink:href="#SVGID_00000034056119566511783150000006481375341150927234_"  style="overflow:visible;"/>
	</clipPath>
	<g style="clip-path:url(#SVGID_00000178188122499381286430000017970713859699001527_);">
		
			<linearGradient id="SVGID_00000141436565732299968870000000385210638712514220_" gradientUnits="userSpaceOnUse" x1="963.8029" y1="666.4526" x2="965.912" y2="666.4526" gradientTransform="matrix(8.736202e-15 142.673 -142.673 8.736202e-15 95979.3516 -136862.3906)">
			<stop  offset="0" style="stop-color:#51767F"/>
			<stop  offset="0.264" style="stop-color:#4E737B"/>
			<stop  offset="0.473" style="stop-color:#486971"/>
			<stop  offset="0.664" style="stop-color:#3C5961"/>
			<stop  offset="0.842" style="stop-color:#2C4349"/>
			<stop  offset="1" style="stop-color:#1A292E"/>
		</linearGradient>
		
			<rect x="740.5" y="645.9" style="fill:url(#SVGID_00000141436565732299968870000000385210638712514220_);stroke:#FFFFFF;stroke-width:0.5;stroke-miterlimit:10;" width="308.1" height="300.9"/>
	</g>
	
		<use xlink:href="#SVGID_00000034056119566511783150000006481375341150927234_"  style="overflow:visible;fill:none;stroke:#FFFFFF;stroke-width:0.5;stroke-miterlimit:10;"/>
</g>
<path class="st7" d="M915.8,919.9c-3.2-0.2-6.2-2.5-8.7-6.5c-1.9-3-2.9-6.1-2.9-6.1l0.3-0.1c0,0,1,3,2.8,6c1.7,2.8,4.6,6.1,8.5,6.4
	L915.8,919.9L915.8,919.9z"/>
<path class="st7" d="M867.7,919.9l0-0.3c2.1-0.1,5.3-1.4,8.4-6.3c1.9-3.1,2.9-6.1,2.9-6.1l0.2,0v0l-0.1-0.1l0.2-0.1l0.1,0.2
	c0,0.1-1,3.2-2.9,6.2C873.9,917.4,870.9,919.6,867.7,919.9"/>
<path class="st8" d="M913.1,742.3l-3.7,0.7l-5.9,0.9l-4.9,0.7L810,758.2l-9.6-9l-0.7-0.7l0,0l-3-2.8c0.3-7.6,1.9-18.5,10-4.1
	c0,0,0,0,0,0l0,0c0,0,15.4,14.3,5.7-15.2l0.1,0c-0.1,0-0.1,0-0.1,0c-1.1-34.3,15.6-4.5,15.6-4.5c0,0,0,0,0,0l0,0
	c0,0,17.5,21.2,11.2-4.9c0.2-36.2,18.2-5.3,18.2-5.3l7.4,9l6.3-14.9c15.3-24.6,17.5,4.4,17.5,4.4s4.4,16.7,8.5,20.7
	c4.1,4,4.7-2.3,4.7-2.3c11-12.4,10.3,5.4,10.3,5.4C913.4,733.9,913.7,737.1,913.1,742.3"/>
<path class="st8" d="M920.1,712.2c-0.2-0.2-24.7-21.6-51.3-24.3c-26.7-2.7-126.8-1.4-48.7-13.8C898,661.8,920,712.1,920.1,712.2"/>
<path class="st8" d="M872.4,538.1c-0.1,0-0.3-0.1-0.4-0.1c0.1,0,0.1,0,0.2,0C872.2,538.1,872.3,538.1,872.4,538.1"/>
<path class="st8" d="M966.2,382.4c-35.5,5.6-77.5,7.2-125.5,2.1l121.1-9.4L966.2,382.4z"/>
<path class="st8" d="M987.5,458.1l-0.6,49.6l-6.6,3.7l-2.8,12l-0.7,3l2.1,2.3c-30.7,11.8-74.5,11.7-106.7,9.4
	c-7.3-2.3-21.8-8.2-31.6-20.7c-5.5-7.1-8.1-16.2-6.4-25c0.2-1,0.5-2,0.8-3c0,0-33.8-33.9-14.9-72.6c18-36.9,49.4-22.6,57-16.5
	c1.3,1.1,2.8,2,4.3,2.8c3.2,1.7,8.1,4,12.5,4.6c7.1,1,39.4-0.6,39.4-0.6c1.4,0,2.5-0.3,3.6-0.8c0.2-0.1,0.3-0.1,0.4-0.2
	c4.3-2.5,6.9-8.9,12.7-11.4c7.9-3.4,14.5-2.1,19,0.6c5.9,3.5,7.6,6,9.6,10.5c2.5,5.8,4.2,11.9,5.1,18.2c1.8,13.6,4,34.1,3.6,34.1
	L987.5,458.1L987.5,458.1z"/>
<path class="st8" d="M1025.4,650.8c0,0-27,37.7-25.8,71c0,0,0,0.6,0,1.5l-3.9,2.3c-0.3-1.1-0.6-2.3-1-3.8c-5.3-22.2,21-76.5,21-76.5
	s2.7-1,5.3-0.9l4.2,2.1C1025.7,647.4,1025.9,648.8,1025.4,650.8"/>
<path class="st8" d="M1042,697.8l-30.8,18.5c-0.5-2.3-1-4.7-1.5-7.2c-5.4-21.3,8.2-12.5,8.2-12.5s6.3,11.4,6.6-23.5
	c-0.4-14.7,11.3-7.3,11.3-7.3s3.4,22.5,3.6-2.3c0.1-0.6,0.3-1.1,0.5-1.4l0.1,1.7l0,0.1L1042,697.8L1042,697.8z"/>
<g>
	<defs>
		<path id="SVGID_00000129900160816104398220000004489664325000921508_" d="M872.4,538.2c-0.1,0-0.1,0-0.2-0.1c-0.1,0-0.1,0-0.2,0
			C872.1,538.1,872.2,538.1,872.4,538.2"/>
	</defs>
	<clipPath id="SVGID_00000182504062454663635600000016661169364262533283_">
		<use xlink:href="#SVGID_00000129900160816104398220000004489664325000921508_"  style="overflow:visible;"/>
	</clipPath>
	<g style="clip-path:url(#SVGID_00000182504062454663635600000016661169364262533283_);">
		<path class="st10" d="M872,538.1L872,538.1L872,538.1z"/>
		<polygon class="st11" points="872,538.1 872,538.1 872,538.1 872,538.1 		"/>
		<polygon class="st12" points="872,538.1 872,538.1 872,538.1 872,538.1 		"/>
		<polygon class="st13" points="872,538.1 872,538.1 872,538.1 872,538.1 		"/>
		<polygon class="st14" points="872,538.1 872,538.1 872,538.1 872,538.1 		"/>
		<polygon class="st15" points="872,538.1 872,538.1 872,538.1 872,538.1 		"/>
		<polygon class="st16" points="872,538.1 872,538.1 872,538.1 872,538.1 		"/>
		<polygon class="st17" points="872,538.1 872,538.1 872,538.1 872,538.1 		"/>
		<polygon class="st18" points="872,538.1 872,538.1 872,538.1 872,538.1 		"/>
		<polygon class="st19" points="872,538.1 872,538.1 872,538.1 872,538.1 		"/>
		<polygon class="st19" points="872,538.1 872,538.1 872,538.1 872,538.1 		"/>
		<polygon class="st20" points="872.1,538.1 872,538.1 872,538.1 872,538.1 872,538.1 		"/>
		
			<rect x="872" y="538.1" transform="matrix(0.7073 -0.707 0.707 0.7073 -125.1446 774.0099)" class="st21" width="0.1" height="0"/>
		
			<rect x="872" y="538.1" transform="matrix(0.7073 -0.707 0.707 0.7073 -125.1434 774.0149)" class="st22" width="0.1" height="0"/>
		
			<rect x="872" y="538.1" transform="matrix(0.7073 -0.707 0.707 0.7073 -125.1415 774.0195)" class="st23" width="0.1" height="0"/>
		
			<rect x="872" y="538.1" transform="matrix(0.7073 -0.707 0.707 0.7073 -125.1386 774.0252)" class="st24" width="0.1" height="0"/>
		
			<rect x="872" y="538.1" transform="matrix(0.7073 -0.707 0.707 0.7073 -125.1367 774.0298)" class="st25" width="0.1" height="0"/>
		
			<rect x="872" y="538.1" transform="matrix(0.7073 -0.707 0.707 0.7073 -125.1348 774.0345)" class="st26" width="0.1" height="0"/>
		
			<rect x="872" y="538.1" transform="matrix(0.7073 -0.707 0.707 0.7073 -125.1329 774.0392)" class="st27" width="0.1" height="0"/>
		<rect x="872" y="538.1" transform="matrix(0.7073 -0.707 0.707 0.7073 -125.131 774.0445)" class="st28" width="0.1" height="0"/>
		
			<rect x="872" y="538.1" transform="matrix(0.7073 -0.707 0.707 0.7073 -125.1292 774.0491)" class="st28" width="0.1" height="0"/>
		
			<rect x="872" y="538.1" transform="matrix(0.7073 -0.707 0.707 0.7073 -125.1273 774.0538)" class="st29" width="0.1" height="0"/>
		
			<rect x="872" y="538.1" transform="matrix(0.7073 -0.707 0.707 0.7073 -125.1253 774.0585)" class="st30" width="0.1" height="0"/>
		
			<rect x="872" y="538.1" transform="matrix(0.7073 -0.707 0.707 0.7073 -125.1225 774.0641)" class="st31" width="0.1" height="0"/>
		
			<rect x="872" y="538.1" transform="matrix(0.7073 -0.707 0.707 0.7073 -125.1206 774.0688)" class="st32" width="0.1" height="0"/>
		
			<rect x="872.1" y="538.1" transform="matrix(0.7073 -0.707 0.707 0.7073 -125.1187 774.0735)" class="st33" width="0.1" height="0"/>
		
			<rect x="872.1" y="538.1" transform="matrix(0.7073 -0.707 0.707 0.7073 -125.1168 774.0788)" class="st34" width="0.1" height="0"/>
		
			<rect x="872.1" y="538.1" transform="matrix(0.7073 -0.707 0.707 0.7073 -125.1149 774.0834)" class="st35" width="0.1" height="0"/>
		
			<rect x="872.1" y="538.1" transform="matrix(0.7073 -0.707 0.707 0.7073 -125.113 774.0881)" class="st36" width="0.1" height="0"/>
		
			<rect x="872.1" y="538.1" transform="matrix(0.7073 -0.707 0.707 0.7073 -125.1111 774.0928)" class="st37" width="0.1" height="0"/>
		
			<rect x="872.1" y="538.1" transform="matrix(0.7073 -0.707 0.707 0.7073 -125.1083 774.0984)" class="st38" width="0.1" height="0"/>
		
			<rect x="872.1" y="538.1" transform="matrix(0.7073 -0.707 0.707 0.7073 -125.1064 774.1031)" class="st39" width="0.1" height="0"/>
		
			<rect x="872.1" y="538.1" transform="matrix(0.7073 -0.707 0.707 0.7073 -125.1051 774.1081)" class="st40" width="0.1" height="0"/>
		
			<rect x="872.1" y="538.1" transform="matrix(0.7073 -0.707 0.707 0.7073 -125.1026 774.1131)" class="st41" width="0.1" height="0"/>
		
			<rect x="872.1" y="538.1" transform="matrix(0.7073 -0.707 0.707 0.7073 -125.1006 774.1178)" class="st42" width="0.1" height="0"/>
		
			<rect x="872.1" y="538.1" transform="matrix(0.7073 -0.707 0.707 0.7073 -125.0988 774.1224)" class="st42" width="0.1" height="0"/>
		
			<rect x="872.1" y="538.1" transform="matrix(0.7073 -0.707 0.707 0.7073 -125.0969 774.1271)" class="st43" width="0.1" height="0"/>
		
			<rect x="872.1" y="538.1" transform="matrix(0.7073 -0.707 0.707 0.7073 -125.0943 774.1321)" class="st43" width="0.1" height="0"/>
		
			<rect x="872.1" y="538.1" transform="matrix(0.7073 -0.707 0.707 0.7073 -125.0921 774.1375)" class="st44" width="0.1" height="0"/>
		
			<rect x="872.1" y="538.1" transform="matrix(0.7073 -0.707 0.707 0.7073 -125.0902 774.1421)" class="st45" width="0.1" height="0"/>
		
			<rect x="872.2" y="538.1" transform="matrix(0.7073 -0.707 0.707 0.7073 -125.0883 774.1473)" class="st46" width="0.1" height="0"/>
		
			<rect x="872.2" y="538.1" transform="matrix(0.7073 -0.707 0.707 0.7073 -125.0864 774.152)" class="st47" width="0.1" height="0"/>
		
			<rect x="872.2" y="538.1" transform="matrix(0.7073 -0.707 0.707 0.7073 -125.0845 774.1567)" class="st48" width="0.1" height="0"/>
		
			<rect x="872.2" y="538.1" transform="matrix(0.7073 -0.707 0.707 0.7073 -125.0819 774.1617)" class="st49" width="0.1" height="0"/>
		
			<rect x="872.2" y="538.1" transform="matrix(0.7073 -0.707 0.707 0.7073 -125.08 774.1664)" class="st50" width="0.1" height="0"/>
		
			<rect x="872.2" y="538.1" transform="matrix(0.7073 -0.707 0.707 0.7073 -125.0779 774.1718)" class="st51" width="0.1" height="0"/>
		
			<rect x="872.2" y="538.1" transform="matrix(0.7073 -0.707 0.707 0.7073 -125.0767 774.1767)" class="st52" width="0.1" height="0"/>
		
			<rect x="872.2" y="538.1" transform="matrix(0.7073 -0.707 0.707 0.7073 -125.074 774.1816)" class="st53" width="0.1" height="0"/>
		
			<rect x="872.2" y="538.1" transform="matrix(0.7073 -0.707 0.707 0.7073 -125.0721 774.1863)" class="st53" width="0.1" height="0"/>
		
			<rect x="872.2" y="538.1" transform="matrix(0.7073 -0.707 0.707 0.7073 -125.0703 774.191)" class="st54" width="0.1" height="0"/>
		
			<rect x="872.2" y="538.1" transform="matrix(0.7073 -0.707 0.707 0.7073 -125.0684 774.1957)" class="st55" width="0.1" height="0"/>
		
			<rect x="872.2" y="538.1" transform="matrix(0.7073 -0.707 0.707 0.7073 -125.0658 774.2007)" class="st56" width="0.1" height="0"/>
		
			<rect x="872.2" y="538.1" transform="matrix(0.7073 -0.707 0.707 0.7073 -125.0639 774.2054)" class="st57" width="0.1" height="0"/>
		
			<rect x="872.2" y="538.1" transform="matrix(0.7073 -0.707 0.707 0.7073 -125.0624 774.211)" class="st58" width="0.1" height="0"/>
		
			<rect x="872.3" y="538.1" transform="matrix(0.7073 -0.707 0.707 0.7073 -125.0598 774.2159)" class="st58" width="0.1" height="0"/>
		
			<rect x="872.3" y="538.1" transform="matrix(0.7073 -0.707 0.707 0.7073 -125.0579 774.2206)" class="st59" width="0.1" height="0"/>
		
			<rect x="872.3" y="538.1" transform="matrix(0.7073 -0.707 0.707 0.7073 -125.056 774.2253)" class="st60" width="0.1" height="0"/>
		<polygon class="st61" points="872.4,538.1 872.3,538.1 872.3,538.1 872.4,538.1 872.4,538.1 		"/>
		<polygon class="st62" points="872.4,538.1 872.3,538.1 872.3,538.1 872.4,538.1 		"/>
		<polygon class="st63" points="872.4,538.1 872.3,538.2 872.3,538.2 872.4,538.1 		"/>
		<polygon class="st64" points="872.4,538.1 872.3,538.1 872.3,538.1 872.4,538.1 		"/>
		<polygon class="st65" points="872.4,538.1 872.3,538.1 872.3,538.1 872.4,538.1 		"/>
		<polygon class="st66" points="872.4,538.1 872.3,538.1 872.3,538.1 872.4,538.1 		"/>
		<polygon class="st67" points="872.4,538.1 872.3,538.1 872.3,538.1 872.4,538.1 		"/>
		<polygon class="st68" points="872.4,538.1 872.3,538.1 872.3,538.1 872.4,538.1 		"/>
		<polygon class="st69" points="872.4,538.1 872.3,538.1 872.3,538.1 872.4,538.1 		"/>
		<polygon class="st70" points="872.4,538.1 872.4,538.2 872.3,538.2 872.4,538.1 		"/>
		<polygon class="st71" points="872.4,538.1 872.4,538.1 872.4,538.1 872.4,538.1 		"/>
		<polygon class="st71" points="872.4,538.1 872.4,538.1 872.4,538.1 872.4,538.1 		"/>
	</g>
</g>
<g>
	<defs>
		<path id="SVGID_00000041277927650759299670000003991310070751920277_" d="M820.1,416.8c-18.8,38.6,2,73.3,2,73.3
			c-0.3,1,3,6.3,2.8,7.3c-1.8,8.8,7.1,17.3,12.6,24.3c9.8,12.5,26.3,19.5,33.5,21.8c32.2,2.3,77.2-3.1,107.8-14.8l1,1.1
			c0.6-0.3,1.2-0.6,1.7-0.8c2.7-1.4,4.3-2.4,4.9-2.8c0.1-0.1,0.2-0.2,0.2-0.4l0-0.5v0l0-3.6l0.2-14l0.6-49.6l-0.1,0
			c0.4,0-1.8-20.6-3.6-34.1c-0.8-6.3-2.5-12.4-5.1-18.2c-2-4.5-3.7-7-9.6-10.5c-4.6-2.7-11.1-4.1-19-0.6c-5.7,2.5-8.3,8.9-12.7,11.4
			c0,0,0,0,0,0c-0.1,0.1-0.2,0.2-0.4,0.2l0,0c-1.1,0.5-2.2,0.8-3.6,0.8c0,0-32.3,1.6-39.4,0.6c-4.4-0.6-9.3-2.9-12.5-4.6
			c-1.5-0.8-3-1.7-4.3-2.8c-3.7-3-13-7.9-23.7-7.9C842.1,392.4,829.3,397.8,820.1,416.8"/>
	</defs>
	<clipPath id="SVGID_00000156565855277631976050000006359266091830264724_">
		<use xlink:href="#SVGID_00000041277927650759299670000003991310070751920277_"  style="overflow:visible;"/>
	</clipPath>
	<g style="clip-path:url(#SVGID_00000156565855277631976050000006359266091830264724_);">
		
			<linearGradient id="SVGID_00000099647070613885954830000013964440704276137896_" gradientUnits="userSpaceOnUse" x1="954.5571" y1="666.6945" x2="956.6668" y2="666.6945" gradientTransform="matrix(83.087 0 0 83.087 -78498.9219 -54925.1289)">
			<stop  offset="0" style="stop-color:#ECC09B"/>
			<stop  offset="1" style="stop-color:#CB8B56"/>
		</linearGradient>
		
			<rect x="801.3" y="391.2" style="fill:url(#SVGID_00000099647070613885954830000013964440704276137896_);" width="186.4" height="154.6"/>
	</g>
</g>
<path class="st74" d="M920.1,712.2c-0.2-0.2-24.7-21.6-51.3-24.3c-26.7-2.7-126.8-1.4-48.7-13.8C898,661.8,920,712.1,920.1,712.2"/>
<path class="st75" d="M1012.7,370.8c-11.9,10.8-31,24.5-27.9,42.2c0.1,0.4,0.1,0.8,0.2,1.2c0,0.1,0,0.2,0,0.2c0,0.2,0,0.3,0.1,0.5
	c0,0.2,0.1,0.4,0.1,0.6c0,0.2,0.1,0.5,0.1,0.7c0.2,1.5,0.5,3,0.7,4.5c0,0.3,0.1,0.5,0.1,0.8c0,0.2,0.1,0.5,0.1,0.8
	c0,0.3,0.1,0.5,0.1,0.8c0,0.1,0,0.2,0,0.3c0,0.2,0.1,0.5,0.1,0.7v0c0,0.2,0.1,0.4,0.1,0.7c0,0.1,0,0.2,0,0.3c0,0.2,0.1,0.4,0.1,0.7
	c0,0.1,0,0.2,0,0.3c1.8,14.5,0.7,38.8,0.7,38.8V458c0,0.1-0.1,0.1-0.1,0.1c0.4,0-1.8-20.6-3.6-34.1c-0.8-6.3-2.5-12.4-5.1-18.2
	c-2-4.6-3.7-7-9.6-10.5c-4.6-2.7-11.1-4-19-0.6c-5.7,2.5-8.3,8.9-12.7,11.4c-0.1,0.1-0.3,0.2-0.4,0.2c-1,0.6-2.2,0.9-3.6,0.8h0
	c-0.4,0-32.3,1.6-39.4,0.6c-4.4-0.6-9.3-2.9-12.5-4.6c-1.5-0.8-3-1.7-4.3-2.8c-7.6-6.1-39-20.4-57,16.5
	c-18.8,38.6,15,93.5,20.5,100.6c2.4,3.1,5.7,6,9.1,8.5c10.9,8.1,24,12.6,37.5,13.1c29.9,1.2,65.6-0.2,91.7-10.2
	c2.7-1,5.3-2.2,7.8-3.4c0,0,0,0,0,0c0.3-0.2,1.1,0.3,2.4,1.2c-100,52.4-213.8-7-245.9-26.1c0.3-2.8,0.3-4.7,0.3-5.1
	c0.3-91.6-29.7-125.9-41.9-143c-0.1-0.1,0.1-0.2,0.2-0.2c2.5,1.9,5.3,3.4,8.5,4.4c23.7,7.4,46.4,13.3,68.1,17.9
	c21.7,4.6,42.5,7.8,62.3,9.9c48,5.1,90.1,3.5,125.5-2.1c13.7-2.1,26.5-4.9,38.2-8.1c3-0.8,5.7-2.1,8.1-3.7
	C1012.7,370.5,1012.8,370.7,1012.7,370.8"/>
<path class="st74" d="M1054.2,666c-0.1-0.3-0.1-0.6-0.2-0.9c-0.1-0.3-0.2-0.7-0.3-1c-1.5-5.7-4.3-12-7.7-18.4
	c-3.7-6.9-8.1-13.7-12.3-20.5c-57.3,51.1-80.1,36.5-186.3,38.7c-69.8,1.4-112.9-10.3-136-19.9c4.4,98.9,67.6,133.3,67.6,133.3
	c26.4,15.7,23.6,14.7,39.2,21.4c6.7,2.9,35.2-6.1,41.5-10.6l31.4-21.2c0,0,0,0,0,0c2.1-0.4,4.2-0.9,6.2-1.3c2.2-0.4,4.3-0.9,6.3-1.3
	c1.4-0.3,2.8-0.6,4.1-0.9c77.3-17.1,85.9-29.1,89.3-30.3c3.2-1.2,26.4,8.4,31.7,10.7c0,0,19.2-40.6,23.8-66.6
	C1053.5,673.8,1055.1,670,1054.2,666 M919.7,711.9c-3.3-2.8-26.2-21.4-50.8-23.9c-26.7-2.7-126.8-1.4-48.7-13.8
	c73.5-11.7,97.2,32.4,99.8,37.6C919.9,711.9,919.8,712,919.7,711.9 M1025.4,650.8C1025.4,650.8,1025.4,650.8,1025.4,650.8
	c-0.7,1-27,38.1-25.8,71c0,0,0,0.6,0,1.4c0,4.2-0.3,15.3-3.9,2.3c-0.3-1.1-0.6-2.3-1-3.8c-5.2-21.9,20.1-74.8,20.9-76.5
	c0,0,0-0.1,0.1-0.1c0.4-0.1,2.9-1,5.2-0.9c1.8,0,3.5,0.5,4.2,2.1C1025.7,647.4,1025.9,648.8,1025.4,650.8"/>
<path class="st74" d="M1025.4,650.8c0,0-27,37.7-25.8,71c0,0,0,0.6,0,1.5c0,4.2-0.3,15.3-3.9,2.3c-0.3-1.1-0.6-2.3-1-3.8
	c-5.3-22.2,21-76.5,21-76.5s2.7-1,5.3-0.9c1.8,0,3.5,0.5,4.2,2.1C1025.7,647.4,1025.9,648.8,1025.4,650.8"/>
<path class="st76" d="M776.5,732.9c0,0,15.4,14.2,5.7-15.1l0,0c-9.6-30.6,11.6-10.1,15.5-4.6l0.1,0l0,0c5.8,8.7,11.3,8.7,11.2-4.9
	c0.3-34.6,17-7.3,18.2-5.2c0,0,0,0,0.1-0.1c3.7,7.1,8.7,0.9,13.8-5.7l0,0c11.7-18.8,15.7-6.1,17,0.8c0.7,4,1.7,8,3.1,11.9
	c1.6,4.8,3.8,10.2,5.9,12.2c2.6,2.6,4.1,0.8,4.7-0.8c0.7-1.6,1.7-3,3-4.1c8-6.7,8.4,5.2,8.6,7.2c0.2,3.1,0.3,4-0.4,9.2
	c-0.6,5.4-2.3,12.9-5.1,21c-1.1,3.3-2.4,6.8-3.9,10.2v0c-2.2,5.1-4.9,10.2-7.9,14.9v0c-10.7,16.6-26.5,28.2-47.6,18.8
	c-14.7-6.6-32-23.3-51.9-55.7C759.4,728.5,760.3,722.6,776.5,732.9"/>
<g>
	<defs>
		<path id="SVGID_00000026164918883397738450000005947119741187858347_" d="M742.4,512.8c-0.2,0.3-7.3,26.1-24,58.7
			c-0.2,0.4-3.7,16.5-3.9,18.5c-0.1,1.2-0.3,2.3-0.5,3.5c-1.9,13.6-1.5,26.7,3.1,37.1c7.1,15.9,52.1,24.4,80.1,25.3l65.8-3.6
			c0,0,15.9-8.7,15.9-8.7c0.1-0.1-4.3-5.3-8.7-15.9c-8.3-19.8-1.9-28-11.8-48.3c0,0,4.6-7.2,4.6-7.2
			C863,572,773.2,559.2,742.4,512.8C742.4,512.8,742.4,512.8,742.4,512.8L742.4,512.8"/>
	</defs>
	<clipPath id="SVGID_00000149368876008979781730000003598926222273269949_">
		<use xlink:href="#SVGID_00000026164918883397738450000005947119741187858347_"  style="overflow:visible;"/>
	</clipPath>
	<g style="clip-path:url(#SVGID_00000149368876008979781730000003598926222273269949_);">
		
			<linearGradient id="SVGID_00000085951276181477081210000012308246015822671517_" gradientUnits="userSpaceOnUse" x1="965.866" y1="671.0193" x2="967.9752" y2="671.0193" gradientTransform="matrix(4.152655e-15 67.818 -67.818 4.152655e-15 46302.9297 -64990.3125)">
			<stop  offset="0" style="stop-color:#629398"/>
			<stop  offset="0.394" style="stop-color:#629398"/>
			<stop  offset="1" style="stop-color:#496D71"/>
		</linearGradient>
		
			<rect x="712.3" y="512.8" style="fill:url(#SVGID_00000085951276181477081210000012308246015822671517_);" width="166.9" height="143"/>
	</g>
</g>
<path class="st76" d="M1025.5,741.2L1025.5,741.2c-4.5-4.9-9.3-16.9-14.3-39c-0.5-2.3-1-4.7-1.5-7.2c-2.7-10.7-0.7-13.8,2.1-14.3
	c2.5-0.4,5.7,4.9,7.2,7.9c0.3,0.7,1.3,0.6,1.6-0.1c1.3-4.3,3.9-14.5,4-29.6c-0.3-9.9,4.9-9.7,8.4-8.6c1.7,0.6,3,2,3.3,3.8
	c0.9,5.1,3,14.6,3.2-4.8c0.1-0.6,0.3-1.1,0.5-1.4v0c1.6-2.5,4.8,1.4,4.8,1.4s4.6,19.6,5.7,2.4l0,0c0-0.1,1.4-2.7,3.3-1.9
	c0.5,0.2,1.1,0.7,1.7,1.6C1058.3,653.5,1044.7,762.1,1025.5,741.2"/>
<path class="st79" d="M885.8,599.8c-0.8,3.2-6.5,6.9-6.5,6.9s-0.3,0.2-0.6,0.5c-0.1,0.2-0.2,0.4-0.3,0.7c-0.2,0.9,0.1,2.3,2.3,4.4v0
	c3.8,2.1,4.8,5.2,4.9,7.9v0.3c0,0.1,0,0.3,0,0.4c0,0.7-0.1,1.3-0.2,2c0,0.3-0.1,0.6-0.2,0.9c-0.2,0.6-0.3,1.1-0.4,1.3
	c0,0.1-0.1,0.2-0.1,0.2c0,0,0,0,0,0c0,0,0,0.1-0.1,0.1c-1.9,4.2-12.1,10.3-22.5,13c-1.6-3.1-3-6.4-4.1-10c-2.3-7-3.5-14.8-3.5-22.9
	c0-11.2,2.4-21.7,6.5-30.5c1.5-3.4,3.4-6.6,5.5-9.4c0.2-0.3,0.4-0.5,0.6-0.8c0.5-0.7,1-1.4,1.6-2c1,1.3,1.6,3.3,1.1,6.2
	c0,0-0.1,1,0.1,2.3c0.3,1.5,0.9,3.4,2.7,4.6c0.6,0.4,1.2,0.7,2,0.9h0c0,0,0.1,0,0.1,0c1.6,0,9,0.3,2.3,8.6c-0.2,0.3-0.5,0.6-0.7,0.9
	c0,0-3,6.7,4.2,9.6v0C885.2,596.3,886.3,598,885.8,599.8"/>
<path class="st79" d="M934.7,605.4c0,11-2.3,21.3-6.2,30c-1.6,0.2-3.2,0.3-4.8,0.4c-0.7,0-1.3,0.1-1.9,0.1c-2.1,0.1-4.1,0.1-6,0.1
	c0,0-0.1,0-0.1,0c-1.6,1.4-5.2,1.9-7.4,2.1c-18.2-30.1-4.3-46.6,1.2-53.1c0.2-0.2,0.4-0.4,0.6-0.6l2.9-2.6c0,0,5.7-4.7,14.7-8.1
	c0.1,0.1,0.1,0.3,0.2,0.4c1.3,2.7,2.5,5.7,3.4,8.7C933.5,589.8,934.7,597.5,934.7,605.4"/>
<path class="st80" d="M963.4,576.1c0,0-2.2,0.1-5.6,0.5c-6.8,0.8-18.3,2.6-26.5,6.3c-4.4,2-7.8,4.5-9.1,7.8c0,0-0.2,25-0.4,45.2
	c-2.1,0.1-4.1,0.1-6,0.1c0,0-0.1,0-0.1,0c-3,0.1-5,0.1-7.8-1.2c-18.2-30.1-4.4-42.1,1.7-49.7c0.2-0.2,0.4-0.4,0.6-0.6l2.9-2.6
	c0,0,5.7-4.7,14.7-8.1c7.5-2.8,17.2-4.8,27.9-2.5c0,0,0.1,0,0.1,0c1.4,0.3,2.9,0.7,4.4,1.2c0,0-0.3,2,1.4,3
	C961.9,575.9,962.5,576.1,963.4,576.1"/>
<path class="st81" d="M997.4,612.7c0,21.4-20.1,38.7-45,38.7c-24.8,0-45-17.3-45-38.7c0-21.4,20.1-38.7,45-38.7
	C977.3,574,997.4,591.4,997.4,612.7"/>
<path class="st76" d="M1013.9,607.6L1013.9,607.6c-1.8,5.6-5.4,11.6-11.4,17.9c-2.4,2.5-5.2,5.1-8.4,7.7v0h0c0-0.1-1.7-4.6-5.1-7.5
	c0,0,0,0,0,0c-1.2-1-2.6-1.9-4.3-2.2c-0.1,0-0.3-0.1-0.4-0.1c0,0,0,0,0,0c0,0,0,0,0,0c0-0.1,0.1-0.2,0.1-0.2c0,0,0,0,0-0.1
	c0-0.1,0.1-0.1,0.1-0.2c0.6-1.5,2.5-6.2,2.6-10c0.1-2.2-0.4-4.1-2-5c-0.2-0.1-0.3-0.2-0.5-0.2c0,0,0,0,0-0.1c0-0.2-0.1-0.6-0.2-1.2
	c-0.6-3.2-2.7-11.2-8.5-14.2c-0.3-0.1-0.6-0.3-0.9-0.4h0c0,0,0,0,0,0c0,0,0,0,0,0c0-0.1,0.2-0.6,0.4-1.2c0.8-2.9,1.9-9.9-3.7-12.1
	c-0.3-0.1-0.5-0.2-0.8-0.3c0,0,0,0,0,0s-0.2-0.7-2.1-1.4c0-0.1,0-0.2,0-0.2c0-0.1,0-0.2,0-0.2c-1.3-7.4-7.2-8-9.4-7.9c0,0,0,0-0.1,0
	c-0.3,0-0.5,0-0.6,0c4.1-4.1,9.7-8.3,13.4-11c0.1-0.1,0.2-0.2,0.3-0.2c23.5,10.7,33.8,26.6,38.3,37.7c0.2,0.4,0.3,0.8,0.4,1.1
	C1013.5,602.7,1013.9,607.5,1013.9,607.6"/>
<path class="st82" d="M970.7,577.9c0,0,8.8,1.4,4.1,13.7C974.9,591.6,954.5,590.1,970.7,577.9"/>
<path class="st82" d="M984.5,607.5c0,0-26.9-0.9-9.6-15.9C974.9,591.6,982.9,593.8,984.5,607.5"/>
<path class="st82" d="M987.3,612.7c-0.1,2.3-0.9,5.5-2.9,10.1c0,0.1-0.1,0.1-0.1,0.2c0,0,0,0,0,0.1c0,0.1-0.1,0.2-0.1,0.2
	c0,0-6.2-0.4-9.2-2.6c-3-2.2-2.9-6.1,9.5-13.2c0,0,0.2,0,0.6,0.1C985.9,608,987.5,609.1,987.3,612.7"/>
<path class="st82" d="M994.1,633.2L994.1,633.2c0,0-6.1,2-9.6,2.4c0,0-0.8,0-1.8-0.2c-3.2-0.6-8.8-3,1.5-12h0c0,0,0,0,0,0
	c0,0,0.2,0,0.4,0.1c0.8,0.2,2.5,0.9,4.3,2.2C991,627.2,993.1,629.5,994.1,633.2"/>
<path class="st80" d="M944.9,602.3C944.8,602.3,944.8,602.3,944.9,602.3c0,0,0-0.1,0-0.1C944.8,602.2,944.9,602.2,944.9,602.3"/>
<path class="st80" d="M957.4,623c0,0-0.1,0.1-0.2,0.1c-0.1,0-0.1,0.1-0.2,0.1c-0.9,0.5-3.1,1.7-3.6,2c-0.5,0.4-1.2,1.8,0.4,4.9
	c0.6,1.2,1.5,2.7,2.9,4.4c-0.1,0.3-0.9,1.6-1.2,1.3c-1.8-1.8-3.2-3.4-4.4-4.9c-6-7.5-4.4-10-2.5-11.7c0.3-0.3,1.2-0.8,2.3-1.3
	c0.1-0.1,0.3-0.2,0.4-0.2c2-1,4.5-2.2,4.8-2.2C956.7,618,957.2,620.5,957.4,623"/>
<path class="st80" d="M972.1,613.1c-0.5,1.9-2,4-3.8,5.3c-0.7,0.5-2.4,1.5-2.7,1.7c-0.2,0.1-0.3,0.2-0.2,0.4
	c0.4,1.8,0.7,3.4,0.9,4.9c0.2,2.1,0.2,4,0,5.6c0,0.1,0,0.2,0,0.2c-1.2,8.8-7.4,11.6-7.9,11.7c0-0.1,0-0.1,0-0.1
	c3.4-4.6,4.1-10.3,3.5-15.5c0,0,0,0,0,0v0c-1-8.7-5.3-16.4-6.1-17.3c-5.3-6.2-9.7,0.9-10.1,2.4c0,0.1,0,0.2-0.1,0.3
	c0,0.2-0.1,0.5-0.1,0.8c-0.4,3.4-1.1,12.5-1.6,19.4c-0.3,4.3-0.6,7.8-0.8,8.6c-0.2,1.1-0.8,2.2-1.5,3.1c-0.6,0.9-2.1,2.2-4.6,2.6
	c-1.7,0.2-2.7-0.4-3.7-1.3c-0.8-0.7-3.5-6.5-4.1-6.3c-1.1,0.4,0.6,4.9,0.6,5.4c0.5,2.9-2.2,4.5-2.4,4.6c-0.2,0.1-0.3,0-0.3-0.1
	c0,0-1.5-6.1-3.4-13.7c-1.4-5.8-3.1-12.5-4.5-18.1c0-0.1,0-0.1,0-0.2c0-0.2-0.1-0.3-0.1-0.5c-0.4-1.6-0.8-3.1-1.1-4.4v0
	c0-0.2-0.1-0.4-0.1-0.5c0-0.1,0-0.1-0.1-0.2c-0.8-3.1-1.3-5.2-1.4-5.7c-0.3-1-0.5-1.8-0.4-2.2c0-0.2,0.1-0.3,0.2-0.4
	c0.1-0.1,0.2-0.1,0.3-0.1c0.4-0.1,0.8-0.2,1.2-0.1c1.1,0.1,2.1,0.9,3,3.6c3.7,10.6,8.9,20.9,12.8,28c1.2,2.2,2.3,4,3.1,5.5
	c0.4,0.2,0.5-0.4,0.5-0.6c0.1-0.3,0.2-2.3,0.4-5.6c0.3-6.4,0.7-17.3,0.1-27.1c0-0.5-0.1-1-0.1-1.5c-0.1-1-0.1-1.9-0.2-2.8
	c-0.2-2,0.9-4,2.9-4.5c1.1-0.2,2.1,0,3,0.6c1.1,1.1,1.5,2.8,1.6,3.3c0,0.1,0,0.1,0,0.2c-0.5,0.3-1,0.6-1.4,0.9
	c-1.1,0.9-2.5,2.7-3.5,4.6c-0.2,0.3-0.3,0.6-0.4,0.9c-0.5,1.2-0.9,2.3-0.8,3.2c0.3,5.2,5.3,4.3,4.8,2c0,0-0.2-1-0.5-2.3
	c-0.1-0.4-0.2-0.9-0.3-1.3c-0.3-1.4-0.6-2.9-0.7-3.2c-0.1-0.3,0-0.7,0.2-1c0.2-0.3,2.1-4.4,11.6-4.6c0.5,0,0.8-0.1,0.8-0.1
	c0.6-0.4,2.7-4.6,6.6-0.1c-0.6,0.6-1.9,1.5-1.8,3.7c0,0.7,0.3,0.9,0.6,1.3c0.5,0.7,1.8,2.1,2.7,5.4c0.1,0.3,0.5,0.9,0.8,0.8
	c0.7,0,1.7-2.5,1.9-3.4c1.2-5.1-0.9-7.4-2-9c-3.5-5.5-6.8-3.7-6.9-3.7c0,0,0,0,0,0c-1,0.5-1.8,1.3-2.3,2c-0.6,0.7-0.9,1.3-1.1,1.6
	c-0.1,0.1-0.2,0.2-0.2,0.2c0,0,0.2-0.6,0.8-1.7c1.1-1.9,2.9-3.4,3.3-3.6c0,0,0,0,0,0c3-2.1,8.2-3.6,12.2,3.6c0,0,0,0,0,0
	c0.2,0.4,0.5,0.9,0.7,1.4c0.7,1.5,1.2,2.9,1.5,4.2C972.6,608,972.6,611.1,972.1,613.1"/>
<path class="st83" d="M1025.4,650.8c0,0-27,37.7-25.8,71c0,0,0,0.6,0,1.5c0,4.2-0.3,15.3-3.9,2.3c-0.3-1.1-0.6-2.3-1-3.8
	c-5.3-22.2,21-76.5,21-76.5s2.7-1,5.3-0.9c1.8,0,3.5,0.5,4.2,2.1C1025.7,647.4,1025.9,648.8,1025.4,650.8"/>
<path class="st83" d="M920.1,712.2c-0.2-0.2-24.7-21.6-51.3-24.3c-26.7-2.7-126.8-1.4-48.7-13.8C898,661.8,920,712.1,920.1,712.2"/>
<path class="st79" d="M955.5,571.3c-10.6-2.3-20.4-0.3-27.9,2.5c-9,3.4-14.7,8.1-14.7,8.1l-2.9,2.6c-0.2,0.2-0.3,0.4-0.6,0.6
	c0,0,0.1,0,0.1,0l2.8-2.5c0,0,6-4.9,15.4-8.4c7.3-2.7,16.8-4.5,27.1-2.2c0,0,0.1,0,0.1,0C955.2,571.8,955.4,571.6,955.5,571.3
	C955.6,571.4,955.6,571.3,955.5,571.3 M882.1,622.5c-1.3-1.3-2.5-2.7-3.5-4.1c-4.6,0.6-13.2,5.3-20.7,10c-7.7,4.7-14.2,9.3-14.2,9.3
	c0.4,0.2,0.8,0.4,1.3,0.7c4.6,2,10.9,1.6,17.1,0c10.4-2.7,20.6-8.9,22.5-13c0,0,0-0.1,0.1-0.1c0,0,0,0,0,0c0,0,0-0.1,0.1-0.2
	c0,0,0,0,0,0C883.8,624.2,882.9,623.4,882.1,622.5 M850.8,574.3c0.9,0.1,5.2,0.3,10.2,0.6c2.1,0.1,4.3,0.2,6.4,0.3
	c2.1,0.4,3.8,0.2,4.9,0.4c0.1,0,0.2,0,0.3,0c-1.7-1.2-2.4-3.1-2.7-4.6c-0.2-1.3-0.1-2.3-0.1-2.3c0.5-2.9-0.1-4.9-1.1-6.2
	c-2-2.7-5.8-2.8-5.8-2.8c-0.2,0-0.3,0-0.5,0c-0.2,0-0.5,0-0.7,0c-0.2,0-0.5,0-0.7,0c-2.4-0.1-5,0.1-7.7,0.4
	c-16.7,2.1-35.5,11.3-35.5,11.3c0.4,0.1,0.8,0.2,1.2,0.3c16.7,2.5,30.1,2.4,31.4,2.4L850.8,574.3L850.8,574.3z"/>
<path class="st79" d="M1017.9,581.9c0.6-25.4-21.2-49.6-28.8-55.3c-100,52.4-213.8-7-245.9-26.1c-0.5,4.7-1.7,12-4.3,19.7v0
	c0,0,0,0,0,0.1c-6.4,11.8-11.2,23.5-14.6,32.8c-3.4,9.3-5.4,16.3-6,18.7c0,0.1,0.1,0.2,0.2,0.1c4.9-8.4,9.6-14.4,13.9-18.7
	c5.7-5.6,13.6-7.8,21-6.6c4.1,0.7,8.1,2.5,11.5,5.3c13.9,11.7,35.9,17.3,54.1,20c-0.4-0.1-0.8-0.2-1.2-0.3c0,0,18.8-9.2,35.5-11.3
	c2.6-0.3,5.2-0.5,7.7-0.4c0.2,0,0.5,0,0.7,0c0.2,0,0.5,0,0.7,0c0.2,0,0.3,0,0.5,0c0,0,3.7,0.1,5.8,2.8c1,1.3,1.6,3.3,1.1,6.2
	c0,0-0.1,1,0.1,2.3c0.3,1.5,0.9,3.4,2.7,4.6c0.6,0.4,1.2,0.7,2,0.9h0c0,0,0.1,0,0.1,0c1.6,0,9,0.3,2.3,8.6c-0.2,0.3-0.5,0.6-0.7,0.9
	c0,0-3,6.7,4.2,9.6v0c4.8,0.6,5.9,2.3,5.4,4.1c-0.8,3.2-6.5,6.9-6.5,6.9s-0.3,0.2-0.6,0.5c-0.1,0.2-0.2,0.4-0.3,0.7
	c-0.2,0.9,0.1,2.3,2.3,4.4v0c3.8,2.1,4.8,5.2,4.9,7.9v0.3c0,0.1,0,0.3,0,0.4c0,0.7-0.1,1.3-0.2,2c0,0.3-0.1,0.6-0.2,0.9
	c-0.2,0.6-0.3,1.1-0.4,1.3c0,0.1-0.1,0.2-0.1,0.2c0,0,0,0,0,0c0,0,0,0.1-0.1,0.1c-1.9,4.2-12.1,10.3-22.5,13c-6.2,1.6-12.5,2-17.1,0
	c-0.4-0.2-0.9-0.4-1.3-0.7l-60.4,10.3c-16.2-0.5-38.7-8.1-52.8-17.2c-6.3-4-10.9-8.3-12.8-12.4c-3.7-8.4-4.3-18.9-3-29.7
	c-3.1,20.3-4,38.6-3.3,55.1c23.1,9.5,66.2,21.3,136,19.9c106.2-2.2,128.9,12.5,186.3-38.7C1025.3,611.4,1017.5,597.5,1017.9,581.9
	 M958.7,567.9c-0.1,0.1,0,0.2,0.1,0.2c-0.1,0-0.2,0-0.3,0C958.5,568,958.6,568,958.7,567.9 M1009.7,616.3c-1.9,3-4.3,6.1-7.3,9.2
	c-2.4,2.5-5.2,5.1-8.4,7.7l0,0c-0.4,0.1-6.2,2-9.6,2.3h0c-0.1,0-0.8,0-1.8-0.2c-3.2-0.6-8.7-3,1.3-11.8c0.1-0.1,0-0.2-0.1-0.2
	c-1.2-0.1-6.2-0.7-8.9-2.5c0,0-0.1,0-0.1,0c-2.9,1.7-5.8,3.2-8.7,4.5c-1.5,0.7-3,1.3-4.5,1.9c-2.7,1.1-5.4,2.1-8,2.9
	c-0.9,0.3-1.8,0.6-2.7,0.8c-2.5,0.7-4.9,1.4-7.2,1.9c-2.1,0.5-4.2,0.9-6.3,1.2c-1.4,0.2-2.7,0.4-4,0.6c-1.7,0.2-3.4,0.4-5.1,0.6
	c-1.6,0.2-3.2,0.3-4.8,0.4c-0.7,0-1.3,0.1-1.9,0.1c-2.1,0.1-4.1,0.1-6,0.1c0,0-0.1,0-0.1,0c-1.6,1.4-5.2,1.9-7.4,2.1
	c-18.2-30.1-4.3-46.6,1.2-53.1c0.2-0.2,0.4-0.4,0.6-0.6l2.9-2.6c0,0,5.7-4.7,14.7-8.1c7.5-2.8,17.2-4.8,27.9-2.5c0,0,0.1,0,0.1,0
	c1-1.1,2.4-2.2,3.5-3.3h-0.1c2.5-2.2,6.5-5.7,12.8-10.9c0.1-0.1,0.2-0.2,0.3-0.3c0,0,0,0,0,0c23.5,10.7,33.8,26.6,38.2,37.8
	c0.2,0.4,0.3,0.8,0.4,1.1c2.6,6.9,3,11.7,3,11.8C1013,610.4,1011.6,613.3,1009.7,616.3"/>
<path class="st79" d="M958.8,568.1c-0.1,0-0.2,0-0.3,0c0.1-0.1,0.2-0.2,0.2-0.2C958.6,568,958.7,568.1,958.8,568.1"/>
<g>
	<defs>
		<path id="SVGID_00000054267847990670688780000008341995883020671898_" d="M986.7,525.3L986.7,525.3c-2.3,1.7-5.1,2.9-5.1,2.9
			c0,0.3,0,0.5,0,0.8c2.7-1.4,4.3-2.4,4.9-2.8c0.1-0.1,0.2-0.2,0.2-0.4L986.7,525.3L986.7,525.3
			C986.7,525.3,986.7,525.3,986.7,525.3"/>
	</defs>
	<clipPath id="SVGID_00000046308364796382102950000008565663794704318360_">
		<use xlink:href="#SVGID_00000054267847990670688780000008341995883020671898_"  style="overflow:visible;"/>
	</clipPath>
	<g style="clip-path:url(#SVGID_00000046308364796382102950000008565663794704318360_);">
		<rect x="981.6" y="525.3" class="st74" width="5.1" height="1.5"/>
		<rect x="981.6" y="526.8" class="st74" width="5.1" height="0.1"/>
		<rect x="981.6" y="526.9" class="st85" width="5.1" height="0.1"/>
		<rect x="981.6" y="527" class="st86" width="5.1" height="0.1"/>
		<rect x="981.6" y="527.1" class="st87" width="5.1" height="0.1"/>
		<rect x="981.6" y="527.2" class="st87" width="5.1" height="0.1"/>
		<rect x="981.6" y="527.3" class="st88" width="5.1" height="0.1"/>
		<rect x="981.6" y="527.4" class="st89" width="5.1" height="0.1"/>
		<rect x="981.6" y="527.5" class="st90" width="5.1" height="0.1"/>
		<rect x="981.6" y="527.6" class="st91" width="5.1" height="0.1"/>
		<rect x="981.6" y="527.7" class="st92" width="5.1" height="0.1"/>
		<rect x="981.6" y="527.8" class="st93" width="5.1" height="0.1"/>
		<rect x="981.6" y="527.9" class="st94" width="5.1" height="0.1"/>
		<rect x="981.6" y="528" class="st95" width="5.1" height="0.1"/>
		<rect x="981.6" y="528.1" class="st96" width="5.1" height="0.1"/>
		<rect x="981.6" y="528.2" class="st97" width="5.1" height="0.1"/>
		<rect x="981.6" y="528.4" class="st98" width="5.1" height="0.1"/>
		<rect x="981.6" y="528.5" class="st99" width="5.1" height="0.1"/>
		<rect x="981.6" y="528.6" class="st100" width="5.1" height="0.1"/>
		<rect x="981.6" y="528.7" class="st101" width="5.1" height="0.1"/>
		<rect x="981.6" y="528.8" class="st102" width="5.1" height="0.1"/>
		<rect x="981.6" y="528.9" class="st8" width="5.1" height="0.1"/>
	</g>
</g>
<path class="st74" d="M1020.9,361.4C1020.9,361.4,1020.9,361.4,1020.9,361.4c-0.4,0.7-0.8,1.5-1.4,2.2c0,0,0,0,0,0
	c-1.3,1.8-3,3.6-5.1,5.5c-2.8,2.2-6.1,4-9.9,5.1c-11.7,3.2-24.5,5.9-38.2,8.1c-35.5,5.6-77.5,7.2-125.5,2.1h0
	c-39.5-4.2-83.1-13-130.4-27.8c-3.4-1.1-6.5-2.8-9.1-4.9c-3.1-4.4-5.1-6.5-5.1-6.5c49.8-52.1,201.5-24.1,221-19.8
	c1.9,0.4,93.7,23.7,95.5,24.4C1021.4,353.2,1023.1,357,1020.9,361.4"/>
<path class="st103" d="M957.7,404.2c6.1-0.8,12.3,2,15.8,7c4.1,5.9,2.6,12.4,2.2,14c-0.3,1.3-2,7.4-7.9,10.5
	c-6.9,3.6-13.9,0.3-15.3-0.4c-1.4-0.7-6.3-3.3-8.3-9.2c-2.8-7.9,2.1-14.7,2.6-15.3C947.6,409.6,951.3,405,957.7,404.2"/>
<path class="st103" d="M845.8,409.4c7.4-1,15,2.4,19.2,8.5c5,7.2,3.2,15.1,2.7,17c-0.4,1.6-2.4,9-9.6,12.8
	c-8.4,4.4-16.9,0.4-18.6-0.5c-1.7-0.9-7.6-4-10.1-11.2c-3.4-9.6,2.6-17.9,3.2-18.6C833.6,416,838,410.4,845.8,409.4"/>
<path class="st104" d="M958.4,419.3c0,2.8-1.5,5-3.3,5s-3.3-2.3-3.3-5c0-2.8,1.5-5,3.3-5S958.4,416.5,958.4,419.3"/>
<path class="st104" d="M847.9,426.5c0,3.6-2,6.5-4.4,6.5s-4.4-2.9-4.4-6.5s2-6.5,4.4-6.5S847.9,422.9,847.9,426.5"/>
<path class="st105" d="M1003.9,470.4c1.9,19.3-22.4,38.6-52.3,38.6s-56.6,3.3-56.6-14.7c0-18,26.6-50.5,56.6-50.5
	S1001.7,448.3,1003.9,470.4z"/>
<path class="st82" d="M968.6,576.5c0,0-6.8,1.3-11.3,0.8c-1.4-0.2-2.5-0.5-3.2-1.1c-0.8-0.7-0.8-1.9,0.4-3.5
	c0.2-0.2,0.3-0.4,0.5-0.7c1.1-1.3,2.8-2.6,4.1-3.9c0,0,0,0,0,0c1.1-0.1,7.9-0.5,9.3,8c0,0.1,0,0.2,0,0.2
	C968.6,576.4,968.6,576.4,968.6,576.5"/>
<path class="st103" d="M937.5,471.6c0,0-12.8,2.4-16.9-1.7C916.4,465.9,936.1,458.8,937.5,471.6"/>
<path class="st103" d="M969,466.9c0,0,13.6-2.8,11.7-8.8C978.7,452.2,967.7,462.8,969,466.9"/>
<path class="st8" d="M958.8,568.1c-0.1,0-0.2,0-0.3,0c0.1-0.1,0.2-0.2,0.2-0.2C958.6,568,958.7,568.1,958.8,568.1"/>
<path class="st106" d="M610.3,312c-3,5.5-5.6,12.4-2.8,17.3c3.5,6.2,15.6,9.1,91.6-7.5c45.9-10,74.8-18.4,93.8-24.2
	c50.3-15.6,22.5-11.2,66.3-25.8c15.8-5.2,31-9.7,32.7-19.6c1.2-6.9-4.5-13.7-9.3-18.3l-145.7,10.7L610.3,312L610.3,312z"/>
<path class="st80" d="M601.4,346.6c-0.4,0-0.9-0.2-1.2-0.6c-0.2-0.3-0.3-0.6-0.3-1c0-0.4,0.2-0.9,0.6-1.2l95.7-78.2l-104.5,74.6
	c-0.7,0.5-1.6,0.3-2.1-0.4c-0.2-0.3-0.3-0.6-0.3-0.9c0-0.5,0.2-0.9,0.6-1.2l96.7-69l-92.2,58.4c-0.7,0.5-1.6,0.2-2.1-0.5
	c-0.4-0.7-0.2-1.6,0.5-2.1l139.2-88.2c0.1,0,0.1-0.1,0.2-0.1c0.1,0,0.2-0.1,0.2-0.1h0c0,0,0.1,0,0.1,0h0c0,0,0.1,0,0.1,0h0
	c0.1,0,0.1,0,0.2,0c0,0,0,0,0,0c0,0,0,0,0,0h161.4c0.8,0,1.5,0.7,1.5,1.5c0,0.8-0.7,1.5-1.5,1.5h-73.4l87.3,3c0.8,0,1.5,0.7,1.5,1.5
	c0,0,0,0,0,0.1c0,0.8-0.7,1.5-1.6,1.5l-125-4.3L905,252.5c0.8,0.1,1.4,0.7,1.4,1.5c0,0,0,0.1,0,0.1c-0.1,0.8-0.8,1.4-1.7,1.4
	l-140.4-13.4L886,265.6c0.7,0.1,1.2,0.8,1.2,1.5c0,0.1,0,0.2,0,0.3c-0.2,0.8-1,1.4-1.8,1.2L752.5,243L857.7,280c0.6,0.2,1,0.8,1,1.4
	c0,0.2,0,0.3-0.1,0.5c-0.3,0.8-1.1,1.2-1.9,0.9l-113-39.8l77.5,51.6c0.4,0.3,0.7,0.8,0.7,1.3c0,0.3-0.1,0.6-0.3,0.8
	c-0.5,0.7-1.4,0.9-2.1,0.4l-81.3-54.1l44.7,66.8c0.2,0.3,0.3,0.6,0.3,0.8c0,0.5-0.2,1-0.7,1.3c-0.7,0.5-1.6,0.3-2.1-0.4l-45.8-68.4
	l4.7,78.9c0,0,0,0.1,0,0.1c0,0.8-0.6,1.5-1.4,1.5c-0.8,0-1.6-0.6-1.6-1.4l-4.6-77.4l-33.1,87.6c-0.3,0.8-1.2,1.2-2,0.9
	c-0.6-0.2-1-0.8-1-1.4c0-0.2,0-0.4,0.1-0.5l31.7-83.8l-68.7,94.1c-0.5,0.7-1.4,0.8-2.1,0.3c-0.4-0.3-0.6-0.8-0.6-1.2
	c0-0.3,0.1-0.6,0.3-0.9l64-87.6l-94.3,93.8c-0.6,0.6-1.6,0.6-2.1,0c-0.3-0.3-0.4-0.7-0.4-1.1c0-0.4,0.2-0.8,0.4-1.1l85.8-85.4
	l-107.1,87.6C602.1,346.4,601.7,346.6,601.4,346.6"/>
<g>
	<defs>
		<path id="SVGID_00000021802108651360941230000008793436517807489921_" d="M693.1,323.3c-1,1.2-1.4,2.8-1.9,4.2
			c-0.8,2.3-1.1,4.6-1.1,6.8c0,6.8,3.3,13.1,8.7,17.5c2.6,2.1,5.8,3.8,9.2,4.9c47.7,15,91.7,23.8,131.5,28.1h0
			c48.4,5.2,90.8,3.5,126.6-2.1c13.8-2.2,26.7-5,38.6-8.2c3.9-1,7.2-2.8,10-5.1c2-1.6,3.7-3.5,5.1-5.6c0,0,0,0,0,0
			c0.5-0.7,1-1.5,1.4-2.3c0,0,0,0,0,0c6.9-12.4,3.5-28.8-12.9-31.2c-69.6-10.2-165.8-24.7-234.6-24.7
			C734.6,305.7,704.4,310.4,693.1,323.3"/>
	</defs>
	<clipPath id="SVGID_00000158734437578330337400000008248285705554270622_">
		<use xlink:href="#SVGID_00000021802108651360941230000008793436517807489921_"  style="overflow:visible;"/>
	</clipPath>
	<g style="clip-path:url(#SVGID_00000158734437578330337400000008248285705554270622_);">
		
			<linearGradient id="SVGID_00000167383009225382118420000002764450210488164998_" gradientUnits="userSpaceOnUse" x1="957.22" y1="664.5351" x2="959.3287" y2="664.5351" gradientTransform="matrix(158.573 0 0 158.573 -151099.1562 -105029.4297)">
			<stop  offset="0" style="stop-color:#D6AC51"/>
			<stop  offset="0.314" style="stop-color:#D3A94F"/>
			<stop  offset="0.518" style="stop-color:#CAA149"/>
			<stop  offset="0.69" style="stop-color:#BB943E"/>
			<stop  offset="0.845" style="stop-color:#A68130"/>
			<stop  offset="0.987" style="stop-color:#8B691D"/>
			<stop  offset="1" style="stop-color:#89671C"/>
		</linearGradient>
		
			<rect x="690.1" y="305.7" style="fill:url(#SVGID_00000167383009225382118420000002764450210488164998_);" width="338" height="84.3"/>
	</g>
</g>
<g>
	<defs>
		<path id="SVGID_00000146470213410728529090000004253495078222156733_" d="M767.2,323.5c-5.9,9.2-0.5,23.2,4.9,30.9
			c11.8,16.6,43.8,17,65.7,19.5c22,2.4,91.9,11.2,105.6-8.9c1.3-1.9,5.3-7.8,4.1-14.6c-3.6-19.2-45.3-24.1-121.7-32.4
			c-14.4-1.6-25.5-2.5-34.1-2.5C778.2,315.4,770.9,317.7,767.2,323.5"/>
	</defs>
	<clipPath id="SVGID_00000096749458780000903090000003638470843812410793_">
		<use xlink:href="#SVGID_00000146470213410728529090000004253495078222156733_"  style="overflow:visible;"/>
	</clipPath>
	<g style="clip-path:url(#SVGID_00000096749458780000903090000003638470843812410793_);">
		
			<linearGradient id="SVGID_00000102528884378299330940000002185168648810555832_" gradientUnits="userSpaceOnUse" x1="966.3464" y1="660.1688" x2="968.4551" y2="660.1688" gradientTransform="matrix(-86.799 0 0 -86.799 84825.4062 57652.2031)">
			<stop  offset="0" style="stop-color:#C3A056"/>
			<stop  offset="0.346" style="stop-color:#C09D53"/>
			<stop  offset="0.571" style="stop-color:#B7944A"/>
			<stop  offset="0.761" style="stop-color:#A8863B"/>
			<stop  offset="0.931" style="stop-color:#937126"/>
			<stop  offset="1" style="stop-color:#89671C"/>
		</linearGradient>
		
			<rect x="761.3" y="315.4" style="fill:url(#SVGID_00000102528884378299330940000002185168648810555832_);" width="187.4" height="69.6"/>
	</g>
</g>
<path class="st80" d="M754.9,316.7l-43.4-48.6l33-5.1l17.9-11.2l7.9-0.9l-7.9,63.9l122,366.6c0.5,1.6-0.2,3.4-1.8,4.1
	c-1.8,0.9-4-0.1-4.6-2L754.9,316.7L754.9,316.7z"/>
<polygon class="st79" points="612,312.3 641.1,299.5 659.5,286.6 670.1,286.6 686.9,281 711.6,268.1 744.5,263.1 762.4,251.9 
	800.5,247.5 813.3,241.9 847.5,237.9 881.1,234.6 735,234.6 "/>
<path class="st76" d="M885.6,620.7c0,0.7-0.1,1.3-0.2,2c0,0.3-0.1,0.6-0.2,0.9c-0.1,0.4-0.3,0.9-0.5,1.3c0,0.1-0.1,0.1-0.1,0.2
	c0,0,0,0.1-0.1,0.1c-1.9,4.2-12.1,10.3-22.5,13c-6.2,1.6-12.5,2-17.1,0c-0.4-0.2-0.9-0.4-1.3-0.7c0,0,1-6.8,0.9-16
	c-0.1-9.8-1.5-22.5-6.6-32.8c-3.9-7.8-9.9-14.2-19.1-17c-0.4-0.1-0.8-0.2-1.2-0.3c0,0,18.8-9.2,35.5-11.3c2.6-0.3,5.2-0.5,7.7-0.4
	c0.2,0,0.5,0,0.7,0c0.2,0,0.5,0,0.7,0c0.2,0,0.3,0,0.5,0l0.2,0.2c0.5,0.5,2.1,2.1,4,4.6c0.9,1.2,1.8,2.6,2.7,4.2c0,0-0.1,1,0.1,2.3
	c0.3,1.5,0.9,3.4,2.7,4.6c0.6,0.4,1.2,0.7,2,0.9h0c0,0,0.1,0,0.1,0c0.6,0.1,1.1,0.2,1.8,0.3c0,0,4.5,0.7,2.3,5.4
	c-0.4,0.8-1,1.8-1.8,2.9c-0.2,0.3-0.5,0.6-0.7,0.9c0,0-3,6.7,4.2,9.6c0.2,0.1,0.5,0.2,0.7,0.2c3.9,1.3,3.3,3.5,1.8,5.6
	c-0.2,0.3-0.4,0.6-0.7,0.8c-1.1,1.3-2.4,2.6-2.9,3.4l0,0v0c-0.1,0.2-0.2,0.4-0.2,0.6c0,0,0,0.1,0,0.1c0,0.1,0.1,0.1,0.1,0.1
	c0,0-0.3,0.2-0.6,0.5c-0.1,0.2-0.2,0.4-0.3,0.7c-0.2,0.9,0.1,2.3,2.3,4.4c0.6,0.5,1.3,1.1,2.1,1.7c0,0,2.5,2.3,2.8,6.1v0.3
	C885.6,620.5,885.6,620.6,885.6,620.7"/>
<path class="st111" d="M885.8,599.8c-0.8,3.2-6.5,6.9-6.5,6.9l0-0.3l0.1-0.5v0l0.2-2.3l0.6-5.5l0.1-1.4v0l0.1-0.8v0
	C885.2,596.3,886.3,598,885.8,599.8"/>
<path class="st111" d="M869.7,568.9c0,0-1.6-1.5-3.3-3.4c-1.7-1.9-3.4-4.2-3.6-5.6c0,0,3.7,0.1,5.8,2.8
	C869.6,564,870.2,566,869.7,568.9"/>
<path class="st111" d="M876.9,585.3l-2.5-8.6v0h0.3C876.2,576.7,883.7,577,876.9,585.3"/>
<path class="st111" d="M874.4,576.7c0,0-0.1,6,2.5,8.6L874.4,576.7z"/>
<path class="st111" d="M880.4,596.2c0,0-3,8.8-1.2,10.4L880.4,596.2z"/>
<path class="st111" d="M885.6,620v0.3c0,0.8-0.1,1.6-0.2,2.3c-0.1,0.3-0.1,0.7-0.2,1c-0.2,0.6-0.3,1.1-0.4,1.3
	c0,0.1-0.1,0.2-0.1,0.2c0,0,0,0,0,0c-1.1-0.8-1.9-1.7-2.5-2.6c-2.1-3-2.2-6.2-1.9-8.2c0.2-1.2,0.4-1.9,0.5-2.1v0
	C884.5,614.3,885.5,617.4,885.6,620"/>
</svg>
