<?xml version="1.0" encoding="UTF-8"?>
<svg id="Ebene_1" data-name="Ebene 1" xmlns="http://www.w3.org/2000/svg" xmlns:xlink="http://www.w3.org/1999/xlink" viewBox="0 0 1920 1080">
  <defs>
    <style>
      .cls-1 {
        fill: none;
      }

      .cls-2 {
        clip-path: url(#clippath);
      }

      .cls-3 {
        fill: #ecbe98;
      }

      .cls-4 {
        fill: #ecc09b;
      }

      .cls-5 {
        fill: #e9bb94;
      }

      .cls-6 {
        fill: #e9bb93;
      }

      .cls-7 {
        fill: #eabc96;
      }

      .cls-8 {
        fill: #eabb94;
      }

      .cls-9 {
        fill: #e7b891;
      }

      .cls-10 {
        fill: #e7b790;
      }

      .cls-11 {
        fill: #e7b993;
      }

      .cls-12 {
        fill: #e4b48a;
      }

      .cls-13 {
        fill: #e4b48b;
      }

      .cls-14 {
        fill: #e4b58c;
      }

      .cls-15 {
        fill: #e4b68e;
      }

      .cls-16 {
        fill: #ebbe98;
      }

      .cls-17 {
        fill: #ebbe97;
      }

      .cls-18 {
        fill: #fff;
      }

      .cls-19 {
        fill: #e5c0a1;
      }

      .cls-20 {
        fill: #e3b48b;
      }

      .cls-21 {
        fill: #e3b48a;
      }

      .cls-22 {
        fill: #8c8c8c;
      }

      .cls-23 {
        fill: #ce8f5b;
      }

      .cls-24 {
        fill: #ce8f5d;
      }

      .cls-25 {
        fill: #ce925f;
      }

      .cls-26 {
        fill: #d39869;
      }

      .cls-27 {
        fill: #d3996a;
      }

      .cls-28 {
        fill: #d9a274;
      }

      .cls-29 {
        fill: #d9a273;
      }

      .cls-30 {
        fill: #d9a172;
      }

      .cls-31 {
        fill: #d8ac50;
      }

      .cls-32 {
        fill: #cb8b56;
      }

      .cls-33 {
        fill: #d19462;
      }

      .cls-34 {
        fill: #d0915e;
      }

      .cls-35 {
        fill: #dda87d;
      }

      .cls-36 {
        fill: #dda87f;
      }

      .cls-37 {
        fill: #dda97e;
      }

      .cls-38 {
        fill: #ddaa80;
      }

      .cls-39 {
        fill: #cc8e5a;
      }

      .cls-40 {
        fill: #cc8d59;
      }

      .cls-41 {
        fill: #cc8d5a;
      }

      .cls-42 {
        fill: #cc8c57;
      }

      .cls-43 {
        fill: #d29667;
      }

      .cls-44 {
        fill: #d29664;
      }

      .cls-45 {
        fill: #d29767;
      }

      .cls-46 {
        fill: #d09461;
      }

      .cls-47 {
        fill: #d09360;
      }

      .cls-48 {
        fill: #d19563;
      }

      .cls-49 {
        fill: #dca578;
      }

      .cls-50 {
        fill: #dca67a;
      }

      .cls-51 {
        fill: #dca77c;
      }

      .cls-52 {
        fill: #dba375;
      }

      .cls-53 {
        fill: #dba476;
      }

      .cls-54 {
        fill: #e0ad82;
      }

      .cls-55 {
        fill: #e0ad83;
      }

      .cls-56 {
        fill: #e0af84;
      }

      .cls-57 {
        fill: #d89f71;
      }

      .cls-58 {
        fill: #d49a6b;
      }

      .cls-59 {
        fill: #e2b087;
      }

      .cls-60 {
        fill: #e2b188;
      }

      .cls-61 {
        fill: #e1ae84;
      }

      .cls-62 {
        fill: #e1b086;
      }

      .cls-63 {
        fill: #d69c6c;
      }

      .cls-64 {
        fill: #d69d6d;
      }

      .cls-65 {
        fill: #dfab80;
      }

      .cls-66 {
        fill: #dfac81;
      }

      .cls-67 {
        fill: #d79e6e;
      }

      .cls-68 {
        fill: #d79e6f;
      }

      .cls-69 {
        fill: #25373e;
      }

      .cls-70 {
        fill: #25373a;
      }

      .cls-71 {
        fill: #25363d;
      }

      .cls-72 {
        fill: #25363c;
      }

      .cls-73 {
        fill: #1f3035;
      }

      .cls-74 {
        fill: #1e2f34;
      }

      .cls-75 {
        fill: #203136;
      }

      .cls-76 {
        fill: #24353b;
      }

      .cls-77 {
        fill: #23343a;
      }

      .cls-78 {
        fill: #223338;
      }

      .cls-79 {
        fill: #203035;
      }

      .cls-80 {
        fill: #426168;
      }

      .cls-81 {
        fill: #14171f;
      }

      .cls-82 {
        fill: #1d2e33;
      }

      .cls-83 {
        fill: #1c2c31;
      }

      .cls-84 {
        fill: #1c2b30;
      }

      .cls-85 {
        fill: #1c2a2f;
      }

      .cls-86 {
        fill: #1a292e;
      }

      .cls-87 {
        fill: #88661b;
      }

      .cls-88 {
        fill: #2a3d43;
      }

      .cls-89 {
        fill: #283b41;
      }

      .cls-90 {
        fill: #2d1c12;
      }

      .cls-91 {
        fill: #293c42;
      }

      .cls-92 {
        fill: #26383e;
      }

      .cls-93 {
        fill: #57848c;
      }

      .cls-94 {
        fill: #70a8b1;
      }

      .cls-95 {
        fill: #273a40;
      }

      .cls-96 {
        fill: #261710;
      }

      .cls-97 {
        clip-path: url(#clippath-1);
      }

      .cls-98 {
        clip-path: url(#clippath-4);
      }

      .cls-99 {
        clip-path: url(#clippath-3);
      }

      .cls-100 {
        clip-path: url(#clippath-2);
      }

      .cls-101 {
        clip-path: url(#clippath-7);
      }

      .cls-102 {
        clip-path: url(#clippath-6);
      }

      .cls-103 {
        clip-path: url(#clippath-5);
      }

      .cls-104 {
        fill: url(#Unbenannter_Verlauf_12);
      }

      .cls-105 {
        fill: url(#Unbenannter_Verlauf_16);
      }

      .cls-106 {
        fill: url(#Unbenannter_Verlauf_11);
      }

      .cls-107 {
        fill: url(#Unbenannter_Verlauf_13);
      }

      .cls-108 {
        fill: url(#Unbenannter_Verlauf_10);
      }

      .cls-109 {
        fill: url(#Unbenannter_Verlauf_2);
      }

      .cls-110 {
        fill: url(#Unbenannter_Verlauf_3);
      }
    </style>
    <clipPath id="clippath">
      <path class="cls-1" d="m918.621-3c-.026,2.855-.037,5.72-.037,8.579,0,129.726,25.558,255.928,75.961,375.098,48.544,114.766,117.896,217.696,206.132,305.936,88.234,88.234,191.168,157.586,305.934,206.128,119.169,50.404,245.369,75.963,375.098,75.963,13.808,0,27.566-.29,41.292-.867V-3h-1004.379Z"/>
    </clipPath>
    <radialGradient id="Unbenannter_Verlauf_2" data-name="Unbenannter Verlauf 2" cx="542.059" cy="838.492" fx="542.059" fy="838.492" r="1.962" gradientTransform="translate(-264174.981 411559.224) scale(490.826 -490.826)" gradientUnits="userSpaceOnUse">
      <stop offset="0" stop-color="#d6ac51"/>
      <stop offset=".12" stop-color="#d7ae56"/>
      <stop offset=".278" stop-color="#dbb667"/>
      <stop offset=".457" stop-color="#e1c382"/>
      <stop offset=".651" stop-color="#ead5a8"/>
      <stop offset=".855" stop-color="#f5ecd8"/>
      <stop offset="1" stop-color="#fff"/>
    </radialGradient>
    <linearGradient id="Unbenannter_Verlauf_16" data-name="Unbenannter Verlauf 16" x1="-5.741" y1="945.412" x2="1925.741" y2="945.412" gradientUnits="userSpaceOnUse">
      <stop offset="0" stop-color="#2c4c39"/>
      <stop offset="1" stop-color="#417355"/>
    </linearGradient>
    <clipPath id="clippath-1">
      <path class="cls-1" d="m967.619,630.665c-1.396.229-2.712.455-2.914.451-1.141-.022-2.091.877-2.128,2.017-.024.786-1.15,248.261-8.445,272.047-.029.091-.109.153-.204.155h-.004c-4.801.064-142.184,2.996-144.401,20.71-1.427,11.41,72.129,20.821,161.104,20.821s160.703-9.328,161.104-20.821c.61-17.487-144.616-19.012-151.174-20.723-.022-.007-.044-.011-.064-.018-.069-.022-.122-.08-.142-.151-7.224-26.895-5.373-252.185-5.655-271.412-.016-1.081-.036-1.953-.058-2.59-.022-.699-1.913-.888-3.584-.937h-.044c-.537,0-2.004.226-3.389.451"/>
    </clipPath>
    <linearGradient id="Unbenannter_Verlauf_3" data-name="Unbenannter Verlauf 3" x1="540.756" y1="838.024" x2="542.975" y2="838.024" gradientTransform="translate(-118592.827 -76520.73) rotate(90) scale(142.673 -142.673)" gradientUnits="userSpaceOnUse">
      <stop offset="0" stop-color="#51767f"/>
      <stop offset=".264" stop-color="#4e737b"/>
      <stop offset=".473" stop-color="#486971"/>
      <stop offset=".664" stop-color="#3c5961"/>
      <stop offset=".842" stop-color="#2c4349"/>
      <stop offset="1" stop-color="#1a292e"/>
    </linearGradient>
    <clipPath id="clippath-2">
      <path class="cls-1" d="m946.872,516.786c-.071-.022-.14-.044-.211-.069-.069-.004-.14-.011-.211-.013.14.027.28.053.422.082"/>
    </clipPath>
    <clipPath id="clippath-3">
      <path class="cls-1" d="m891.881,389.062c-19.82,40.649,2.062,77.183,2.062,77.183-.346,1.074,3.192,6.614,2.978,7.67-1.866,9.266,7.442,18.175,13.261,25.621,10.289,13.161,27.634,20.479,35.278,22.918,33.895,2.408,81.211-3.227,113.469-15.598l1.09,1.183c.637-.306,1.232-.601,1.787-.881,2.85-1.454,4.559-2.548,5.142-2.936.14-.093.226-.253.226-.422l.007-.544v-.007l.04-3.764.166-14.717.595-52.19-.131-.009c.391,0-1.893-21.648-3.802-35.913-.883-6.601-2.661-13.052-5.32-19.158-2.084-4.787-3.857-7.373-10.112-11.075-4.836-2.865-11.721-4.266-20.044-.641-6.048,2.63-8.773,9.335-13.348,11.963,0,.002-.002.004-.002.007-.089.144-.242.233-.411.244l-.047.002c-1.116.57-2.353.89-3.78.848,0,0-33.988,1.669-41.47.606-4.601-.659-9.819-3.072-13.148-4.829-1.602-.846-3.132-1.807-4.534-2.939-3.891-3.132-13.716-8.305-24.96-8.305-11.85,0-25.275,5.746-34.994,25.683"/>
    </clipPath>
    <linearGradient id="Unbenannter_Verlauf_10" data-name="Unbenannter Verlauf 10" x1="540.471" y1="839.653" x2="542.691" y2="839.653" gradientTransform="translate(-44022.377 70207.455) scale(83.087 -83.087)" gradientUnits="userSpaceOnUse">
      <stop offset="0" stop-color="#ecc09b"/>
      <stop offset="1" stop-color="#cb8b56"/>
    </linearGradient>
    <clipPath id="clippath-4">
      <path class="cls-1" d="m810.128,490.1c-.198.36-7.733,27.479-25.224,61.765-.22.433-3.928,17.354-4.053,19.433-.071,1.227-.346,2.455-.499,3.655-1.949,14.34-1.589,28.051,3.287,39.073,7.42,16.763,54.827,25.67,84.287,26.589l69.271-3.789s16.775-9.197,16.777-9.202c.093-.107-4.545-5.624-9.2-16.777-8.711-20.874-2.046-29.421-12.447-50.872,0,0,4.872-7.575,4.869-7.575-.171-.029-94.657-13.436-127.063-62.3-.002,0-.002-.004-.004-.004l-.002.002"/>
    </clipPath>
    <linearGradient id="Unbenannter_Verlauf_11" data-name="Unbenannter Verlauf 11" x1="539.351" y1="837.209" x2="541.57" y2="837.209" gradientTransform="translate(-55911.892 -36087.755) rotate(90) scale(67.818 -67.818)" gradientUnits="userSpaceOnUse">
      <stop offset="0" stop-color="#629398"/>
      <stop offset=".394" stop-color="#629398"/>
      <stop offset="1" stop-color="#496d71"/>
    </linearGradient>
    <clipPath id="clippath-5">
      <path class="cls-1" d="m1067.145,503.272s-.004.004-.004.004c-2.457,1.738-5.362,3.083-5.362,3.083.009.271.018.535.027.799,2.85-1.454,4.559-2.548,5.142-2.936.14-.093.226-.253.226-.422l.007-.544v-.007c-.011.009-.022.016-.035.022"/>
    </clipPath>
    <clipPath id="clippath-6">
      <path class="cls-1" d="m758.231,290.735c-1.079,1.232-1.485,2.914-1.997,4.468-.799,2.432-1.174,4.845-1.174,7.198,0,7.175,3.496,13.765,9.149,18.375,2.772,2.262,6.059,4.046,9.706,5.191,50.219,15.769,96.443,25.066,138.359,29.536h.004c50.96,5.433,95.556,3.72,133.221-2.197,14.573-2.29,28.109-5.209,40.576-8.587,4.055-1.099,7.564-2.974,10.491-5.364,2.113-1.722,3.922-3.711,5.411-5.866.002-.004.002-.007.004-.011.537-.772,1.028-1.565,1.478-2.377.002,0,.002-.004.002-.007,7.233-13.017,3.702-30.335-13.552-32.863-73.201-10.727-174.49-26.005-246.823-26.003-41.173,0-72.97,4.952-84.856,18.508"/>
    </clipPath>
    <linearGradient id="Unbenannter_Verlauf_12" data-name="Unbenannter Verlauf 12" x1="540.278" y1="839.304" x2="542.497" y2="839.304" gradientTransform="translate(-84918.501 133407.647) scale(158.573 -158.573)" gradientUnits="userSpaceOnUse">
      <stop offset="0" stop-color="#d6ac51"/>
      <stop offset=".314" stop-color="#d3a94f"/>
      <stop offset=".518" stop-color="#caa149"/>
      <stop offset=".69" stop-color="#bb943e"/>
      <stop offset=".845" stop-color="#a68130"/>
      <stop offset=".987" stop-color="#8b691d"/>
      <stop offset="1" stop-color="#89671c"/>
    </linearGradient>
    <clipPath id="clippath-7">
      <path class="cls-1" d="m836.182,290.941c-6.168,9.666-.506,24.463,5.185,32.484,12.387,17.451,46.04,17.922,69.151,20.472,23.113,2.546,96.687,11.765,111.098-9.373,1.381-2.029,5.611-8.234,4.277-15.376-3.773-20.172-47.716-25.361-128.112-34.122-15.13-1.647-26.86-2.641-35.917-2.643-14.133,0-21.764,2.421-25.681,8.558"/>
    </clipPath>
    <linearGradient id="Unbenannter_Verlauf_13" data-name="Unbenannter Verlauf 13" x1="540.604" y1="835.648" x2="542.823" y2="835.648" gradientTransform="translate(47949.825 -72214.102) rotate(-180) scale(86.799 -86.799)" gradientUnits="userSpaceOnUse">
      <stop offset="0" stop-color="#c3a056"/>
      <stop offset=".346" stop-color="#c09d53"/>
      <stop offset=".571" stop-color="#b7944a"/>
      <stop offset=".761" stop-color="#a8863b"/>
      <stop offset=".931" stop-color="#937126"/>
      <stop offset="1" stop-color="#89671c"/>
    </linearGradient>
  </defs>
  <g class="cls-2">
    <rect class="cls-109" x="918.584" y="-3" width="1004.416" height="971.704"/>
  </g>
  <path class="cls-105" d="m1925.741,1087.222H-5.741v-270.615c516.667-57.162,1351.852,95.207,1931.481,52.097v218.518Z"/>
  <g>
    <path class="cls-1" d="m844.114,126.761c54.907,129.808,133.348,246.228,233.149,346.034"/>
    <g class="cls-97">
      <rect class="cls-110" x="808.095" y="630.215" width="324.246" height="316.651"/>
    </g>
    <path class="cls-18" d="m992.545,918.49c-3.367-.222-6.547-2.59-9.2-6.847-1.995-3.2-3.007-6.376-3.016-6.408l.309-.098c.011.031,1.012,3.174,2.985,6.339,1.811,2.901,4.829,6.419,8.944,6.689l-.022.324Z"/>
    <path class="cls-18" d="m941.978,918.439l-.022-.324c2.242-.151,5.6-1.425,8.878-6.623,2.031-3.225,3.049-6.421,3.056-6.447l.158.042v-.004l-.151-.06.189-.1.124.173c-.009.111-1.085,3.342-3.052,6.49-2.661,4.257-5.837,6.627-9.18,6.854"/>
    <path class="cls-86" d="m989.747,731.575l-3.897.692-6.225.952-5.142.788-93.243,14.28-10.121-9.508-.768-.721-.004-.004-3.145-2.954c.286-7.992,2.024-19.418,10.529-4.312,0,.004,0,.009-.002.013l.011-.011s16.244,15.026,5.977-15.993l.138-.042c-.095-.018-.149-.029-.149-.029-1.179-36.072,16.413-4.692,16.413-4.692-.002.004-.007.009-.011.013l.022-.007s18.435,22.305,11.785-5.136c.237-38.057,19.191-5.555,19.191-5.555l7.828,9.513,6.652-15.68c16.131-25.839,18.41,4.656,18.41,4.656,0,0,4.601,17.542,8.935,21.766,4.33,4.224,4.98-2.441,4.98-2.441,11.61-13.037,10.829,5.691,10.829,5.691,1.321-.109,1.662,3.28,1.008,8.722"/>
    <path class="cls-86" d="m997.105,699.978c-.202-.175-25.967-22.694-53.941-25.523-28.085-2.836-133.423-1.447-51.28-14.515,81.999-13.046,105.141,39.854,105.221,40.039"/>
    <path class="cls-86" d="m946.871,516.785c-.14-.027-.28-.053-.42-.082.069.004.14.011.211.016.069.022.14.044.209.067"/>
    <path class="cls-86" d="m1045.655,352.87c-37.351,5.868-81.571,7.566-132.105,2.18l127.411-9.899,4.694,7.719Z"/>
    <path class="cls-86" d="m1067.982,432.579l-.595,52.19-6.929,3.875-2.987,12.646-.748,3.176,2.204,2.39c-32.255,12.371-78.37,12.269-112.266,9.861-7.646-2.439-22.924-8.671-33.214-21.83-5.822-7.448-8.569-16.999-6.703-26.265.213-1.056.488-2.128.835-3.205,0,0-35.518-35.708-15.7-76.355,18.945-38.858,51.964-23.808,59.956-17.38,1.403,1.134,2.934,2.093,4.534,2.941,3.329,1.758,8.547,4.17,13.148,4.827,7.484,1.065,41.47-.604,41.47-.604,1.427.042,2.663-.277,3.78-.85.158-.069.313-.155.459-.251,4.576-2.63,7.3-9.333,13.348-11.963,8.321-3.624,15.208-2.224,20.044.641,6.254,3.7,8.028,6.288,10.112,11.075,2.657,6.106,4.439,12.558,5.32,19.158,1.909,14.264,4.192,35.913,3.802,35.913l.131.009Z"/>
    <path class="cls-86" d="m1107.863,635.317s-28.387,39.686-27.119,74.715c0,0,.013.608.011,1.529l-4.073,2.439c-.313-1.139-.648-2.455-1.008-3.968-5.577-23.371,22.05-80.545,22.05-80.545,0,0,2.85-1.025,5.575-.994l4.459,2.182c.506,1.041.619,2.535.104,4.643"/>
    <path class="cls-86" d="m1125.415,684.81l-32.417,19.418c-.542-2.408-1.085-4.932-1.631-7.57-5.728-22.456,8.634-13.17,8.634-13.17,0,0,6.585,11.983,6.909-24.716-.471-15.418,11.872-7.664,11.872-7.664,0,0,3.571,23.664,3.804-2.424.144-.646.335-1.139.559-1.503l.104,1.744.009.131,2.157,35.753Z"/>
    <g class="cls-100">
      <path class="cls-4" d="m946.458,516.702l-.007.007.007-.007Z"/>
      <polygon class="cls-3" points="946.465 516.702 946.449 516.718 946.449 516.709 946.458 516.702 946.465 516.702"/>
      <polygon class="cls-16" points="946.472 516.702 946.45 516.725 946.45 516.718 946.466 516.702 946.472 516.702"/>
      <polygon class="cls-17" points="946.48 516.702 946.451 516.731 946.451 516.725 946.473 516.702 946.48 516.702"/>
      <polygon class="cls-7" points="946.487 516.702 946.451 516.738 946.451 516.731 946.48 516.702 946.487 516.702"/>
      <polygon class="cls-8" points="946.494 516.702 946.45 516.747 946.45 516.738 946.487 516.702 946.494 516.702"/>
      <polygon class="cls-5" points="946.501 516.702 946.45 516.754 946.45 516.747 946.495 516.702 946.501 516.702"/>
      <polygon class="cls-6" points="946.509 516.702 946.451 516.76 946.451 516.754 946.502 516.702 946.509 516.702"/>
      <polygon class="cls-11" points="946.516 516.702 946.449 516.769 946.449 516.76 946.509 516.702 946.516 516.702"/>
      <polygon class="cls-9" points="946.523 516.702 946.45 516.776 946.45 516.769 946.517 516.702 946.523 516.702"/>
      <polygon class="cls-9" points="946.531 516.702 946.451 516.782 946.451 516.776 946.524 516.702 946.531 516.702"/>
      <polygon class="cls-10" points="946.538 516.702 946.456 516.785 946.451 516.785 946.451 516.782 946.531 516.702 946.538 516.702"/>
      <rect class="cls-15" x="946.443" y="516.74" width=".116" height=".007" transform="translate(-88.232 820.414) rotate(-44.988)"/>
      <rect class="cls-14" x="946.45" y="516.74" width=".116" height=".007" transform="translate(-88.23 820.42) rotate(-44.988)"/>
      <rect class="cls-13" x="946.457" y="516.74" width=".116" height=".007" transform="translate(-88.228 820.425) rotate(-44.988)"/>
      <rect class="cls-20" x="946.465" y="516.74" width=".116" height=".007" transform="translate(-88.225 820.43) rotate(-44.988)"/>
      <rect class="cls-12" x="946.472" y="516.74" width=".116" height=".007" transform="translate(-88.223 820.435) rotate(-44.988)"/>
      <rect class="cls-21" x="946.479" y="516.74" width=".116" height=".007" transform="translate(-88.221 820.44) rotate(-44.988)"/>
      <rect class="cls-60" x="946.486" y="516.74" width=".116" height=".007" transform="translate(-88.219 820.445) rotate(-44.988)"/>
      <rect class="cls-59" x="946.494" y="516.74" width=".116" height=".007" transform="translate(-88.217 820.451) rotate(-44.988)"/>
      <rect class="cls-59" x="946.501" y="516.74" width=".116" height=".007" transform="translate(-88.215 820.456) rotate(-44.988)"/>
      <rect class="cls-62" x="946.508" y="516.74" width=".116" height=".007" transform="translate(-88.213 820.461) rotate(-44.988)"/>
      <rect class="cls-56" x="946.515" y="516.74" width=".116" height=".007" transform="translate(-88.211 820.466) rotate(-44.988)"/>
      <rect class="cls-61" x="946.523" y="516.74" width=".116" height=".007" transform="translate(-88.208 820.471) rotate(-44.988)"/>
      <rect class="cls-55" x="946.53" y="516.74" width=".116" height=".007" transform="translate(-88.206 820.476) rotate(-44.988)"/>
      <rect class="cls-54" x="946.537" y="516.74" width=".116" height=".007" transform="translate(-88.204 820.481) rotate(-44.988)"/>
      <rect class="cls-66" x="946.545" y="516.74" width=".116" height=".007" transform="translate(-88.202 820.487) rotate(-44.988)"/>
      <rect class="cls-65" x="946.552" y="516.74" width=".116" height=".007" transform="translate(-88.2 820.492) rotate(-44.988)"/>
      <rect class="cls-38" x="946.559" y="516.74" width=".116" height=".007" transform="translate(-88.198 820.497) rotate(-44.988)"/>
      <rect class="cls-36" x="946.566" y="516.74" width=".116" height=".007" transform="translate(-88.196 820.502) rotate(-44.988)"/>
      <rect class="cls-37" x="946.574" y="516.74" width=".116" height=".007" transform="translate(-88.193 820.507) rotate(-44.988)"/>
      <rect class="cls-35" x="946.581" y="516.74" width=".116" height=".007" transform="translate(-88.191 820.512) rotate(-44.988)"/>
      <rect class="cls-51" x="946.588" y="516.74" width=".116" height=".007" transform="translate(-88.189 820.518) rotate(-44.988)"/>
      <rect class="cls-50" x="946.596" y="516.74" width=".116" height=".007" transform="translate(-88.187 820.523) rotate(-44.988)"/>
      <rect class="cls-49" x="946.603" y="516.74" width=".116" height=".007" transform="translate(-88.185 820.528) rotate(-44.988)"/>
      <rect class="cls-49" x="946.61" y="516.74" width=".116" height=".007" transform="translate(-88.183 820.533) rotate(-44.988)"/>
      <rect class="cls-53" x="946.617" y="516.74" width=".116" height=".007" transform="translate(-88.181 820.538) rotate(-44.988)"/>
      <rect class="cls-53" x="946.625" y="516.74" width=".116" height=".007" transform="translate(-88.179 820.543) rotate(-44.988)"/>
      <rect class="cls-52" x="946.632" y="516.74" width=".116" height=".007" transform="translate(-88.176 820.548) rotate(-44.988)"/>
      <rect class="cls-28" x="946.639" y="516.74" width=".116" height=".007" transform="translate(-88.174 820.553) rotate(-44.988)"/>
      <rect class="cls-29" x="946.647" y="516.74" width=".116" height=".007" transform="translate(-88.172 820.559) rotate(-44.988)"/>
      <rect class="cls-30" x="946.654" y="516.74" width=".116" height=".007" transform="translate(-88.17 820.564) rotate(-44.988)"/>
      <rect class="cls-57" x="946.661" y="516.74" width=".116" height=".007" transform="translate(-88.168 820.569) rotate(-44.988)"/>
      <rect class="cls-68" x="946.669" y="516.74" width=".116" height=".007" transform="translate(-88.166 820.574) rotate(-44.988)"/>
      <rect class="cls-67" x="946.676" y="516.74" width=".116" height=".007" transform="translate(-88.164 820.579) rotate(-44.988)"/>
      <rect class="cls-64" x="946.683" y="516.74" width=".116" height=".007" transform="translate(-88.161 820.584) rotate(-44.988)"/>
      <rect class="cls-63" x="946.69" y="516.74" width=".116" height=".007" transform="translate(-88.159 820.59) rotate(-44.988)"/>
      <rect class="cls-58" x="946.698" y="516.74" width=".116" height=".007" transform="translate(-88.157 820.595) rotate(-44.988)"/>
      <rect class="cls-58" x="946.705" y="516.74" width=".116" height=".007" transform="translate(-88.155 820.6) rotate(-44.988)"/>
      <rect class="cls-27" x="946.712" y="516.74" width=".116" height=".007" transform="translate(-88.153 820.605) rotate(-44.988)"/>
      <rect class="cls-26" x="946.719" y="516.74" width=".116" height=".007" transform="translate(-88.151 820.61) rotate(-44.988)"/>
      <rect class="cls-45" x="946.727" y="516.74" width=".116" height=".007" transform="translate(-88.149 820.615) rotate(-44.988)"/>
      <rect class="cls-43" x="946.734" y="516.74" width=".116" height=".007" transform="translate(-88.147 820.62) rotate(-44.988)"/>
      <rect class="cls-44" x="946.741" y="516.74" width=".116" height=".007" transform="translate(-88.144 820.626) rotate(-44.988)"/>
      <rect class="cls-44" x="946.749" y="516.74" width=".116" height=".007" transform="translate(-88.142 820.631) rotate(-44.988)"/>
      <rect class="cls-48" x="946.756" y="516.74" width=".116" height=".007" transform="translate(-88.14 820.636) rotate(-44.988)"/>
      <rect class="cls-33" x="946.763" y="516.74" width=".116" height=".007" transform="translate(-88.138 820.641) rotate(-44.988)"/>
      <polygon class="cls-46" points="946.871 516.704 946.791 516.784 946.784 516.784 946.866 516.702 946.871 516.702 946.871 516.704"/>
      <polygon class="cls-47" points="946.871 516.712 946.798 516.785 946.791 516.785 946.871 516.705 946.871 516.712"/>
      <polygon class="cls-25" points="946.871 516.719 946.804 516.786 946.798 516.786 946.871 516.712 946.871 516.719"/>
      <polygon class="cls-34" points="946.871 516.726 946.813 516.784 946.804 516.784 946.871 516.72 946.871 516.726"/>
      <polygon class="cls-24" points="946.871 516.734 946.82 516.785 946.813 516.785 946.871 516.727 946.871 516.734"/>
      <polygon class="cls-23" points="946.871 516.741 946.827 516.785 946.82 516.785 946.871 516.734 946.871 516.741"/>
      <polygon class="cls-39" points="946.871 516.748 946.835 516.784 946.827 516.784 946.871 516.742 946.871 516.748"/>
      <polygon class="cls-41" points="946.871 516.755 946.842 516.784 946.835 516.784 946.871 516.749 946.871 516.755"/>
      <polygon class="cls-40" points="946.871 516.763 946.849 516.785 946.842 516.785 946.871 516.756 946.871 516.763"/>
      <polygon class="cls-42" points="946.871 516.77 946.855 516.786 946.849 516.786 946.871 516.763 946.871 516.77"/>
      <polygon class="cls-32" points="946.871 516.777 946.864 516.784 946.855 516.784 946.871 516.771 946.871 516.777"/>
      <polygon class="cls-32" points="946.871 516.785 946.871 516.785 946.864 516.785 946.871 516.778 946.871 516.785"/>
    </g>
    <g class="cls-99">
      <rect class="cls-108" x="872.062" y="362.158" width="196.18" height="162.704"/>
    </g>
    <path class="cls-88" d="m997.105,699.978c-.202-.175-25.967-22.694-53.941-25.523-28.085-2.836-133.423-1.447-51.28-14.515,81.999-13.046,105.141,39.854,105.221,40.039"/>
    <path class="cls-80" d="m1094.55,340.641c-12.544,11.361-32.648,25.73-29.339,44.373.064.408.129.817.215,1.225,0,.087.02.171.042.257.022.171.042.366.087.515.02.237.064.453.107.666.042.257.087.495.107.73.26,1.611.517,3.2.73,4.747.044.28.087.559.129.817.022.257.067.537.109.795.022.28.064.537.107.817.022.129.022.257.044.364.042.257.064.515.107.752v.02c.022.237.064.473.087.73.02.109.042.237.042.366.042.235.064.473.087.708.02.109.042.237.042.344,1.869,15.292.73,40.853.73,40.853v-7.282c0,.087-.064.129-.129.129.386,0-1.889-21.651-3.802-35.913-.881-6.592-2.663-13.057-5.327-19.158-2.082-4.79-3.844-7.366-10.116-11.082-4.832-2.856-11.705-4.252-20.039-.624-6.035,2.621-8.762,9.322-13.337,11.963-.151.087-.302.173-.473.237-1.096.579-2.341.901-3.76.859h-.02c-.388.022-34.022,1.654-41.455.601-4.616-.666-9.837-3.072-13.166-4.834-1.589-.837-3.114-1.802-4.532-2.941-7.99-6.423-41.002-21.48-59.945,17.376-19.824,40.658,15.742,98.39,21.564,105.842,2.577,3.287,5.948,6.294,9.557,8.958,11.448,8.483,25.237,13.23,39.455,13.789,31.467,1.287,68.989-.238,96.459-10.782,2.856-1.096,5.606-2.299,8.227-3.587.02,0,.02-.022.042-.022.28-.193,1.181.28,2.557,1.309-105.201,55.177-224.984-7.324-258.79-27.47.3-2.985.342-4.96.342-5.349.28-96.394-31.272-132.52-44.071-150.433-.087-.107.064-.257.171-.171,2.599,1.997,5.626,3.587,8.958,4.619,24.891,7.817,48.819,14.025,71.692,18.856,22.876,4.812,44.739,8.227,65.509,10.438,50.539,5.391,94.763,3.695,132.112-2.191,14.435-2.255,27.858-5.154,40.229-8.505,3.178-.859,6.015-2.213,8.505-3.908.129-.087.257.107.151.193"/>
    <path class="cls-88" d="m1138.237,651.28c-.087-.322-.151-.666-.237-.988-.084-.344-.193-.71-.277-1.052-1.611-6.037-4.512-12.651-8.077-19.396-3.866-7.26-8.527-14.413-12.995-21.606-60.333,53.823-84.236,38.358-195.989,40.7-73.432,1.525-118.751-10.889-143.065-20.92,4.616,104.085,71.177,140.297,71.177,140.297,27.816,16.473,24.873,15.507,41.281,22.552,7.089,3.027,37.007-6.443,43.687-11.104l33.076-22.339s.022-.02.042-.02c2.235-.453,4.426-.903,6.552-1.354,2.277-.473,4.49-.945,6.658-1.418,1.46-.322,2.921-.621,4.339-.943,81.338-17.957,90.422-30.608,94.009-31.895,3.374-1.225,27.73,8.804,33.336,11.233,0,0,20.168-42.742,25.064-70.083.624-3.416,2.364-7.453,1.418-11.663m-141.564,48.326c-3.5-2.965-27.554-22.532-53.502-25.151-28.094-2.836-133.421-1.44-51.289-14.52,77.343-12.307,102.323,34.064,104.986,39.519.042.129-.087.237-.195.151m111.194-64.306s0,.022-.022.042c-.708.988-28.351,40.101-27.104,74.702,0,0,.02.601.02,1.525-.02,4.426-.344,16.067-4.079,2.428-.302-1.139-.646-2.45-1.01-3.953-5.478-23.002,21.156-78.697,22.037-80.499,0-.044.042-.067.064-.067.386-.149,3.005-1.008,5.52-.988,1.869.022,3.673.537,4.468,2.191.493,1.032.621,2.515.107,4.619"/>
    <path class="cls-88" d="m1107.863,635.317s-28.387,39.686-27.119,74.715c0,0,.013.608.011,1.529-.007,4.423-.344,16.075-4.073,2.439-.313-1.139-.648-2.455-1.008-3.968-5.577-23.371,22.05-80.545,22.05-80.545,0,0,2.85-1.025,5.575-.994,1.856.02,3.655.528,4.459,2.182.506,1.041.619,2.535.104,4.643"/>
    <path class="cls-19" d="m845.97,721.764s16.208,14.992,6.01-15.891l-.033.011c-10.152-32.215,12.225-10.651,16.326-4.843l.064-.02.022-.007c6.097,9.104,11.872,9.195,11.796-5.131.289-36.401,17.84-7.639,19.118-5.5.02-.018.04-.038.062-.058,3.866,7.486,9.164.968,14.511-6.024l.004-.004c12.356-19.764,16.559-6.436,17.849.843.755,4.261,1.811,8.465,3.211,12.56,1.716,5.016,4.022,10.707,6.248,12.879,2.785,2.714,4.279.819,4.998-.859.715-1.671,1.782-3.172,3.174-4.343,8.421-7.089,8.853,5.462,9.033,7.537.18,3.249.266,4.217-.386,9.635-.681,5.682-2.45,13.598-5.327,22.112-1.185,3.509-2.559,7.109-4.121,10.704v.011c-2.341,5.391-5.109,10.753-8.31,15.696v.002c-11.281,17.429-27.92,29.667-50.139,19.751-15.463-6.9-33.624-24.527-54.565-58.595-7.486-15.108-6.578-21.324,10.454-10.467"/>
    <g class="cls-98">
      <rect class="cls-106" x="778.404" y="490.098" width="175.664" height="150.518"/>
    </g>
    <path class="cls-19" d="m1108.007,730.411s-.002-.002-.002-.002c-4.736-5.151-9.799-17.775-15.039-41.068-.542-2.408-1.085-4.929-1.631-7.57-2.865-11.228-.706-14.52,2.168-15.006,2.632-.444,5.975,5.118,7.526,8.358.351.73,1.412.655,1.649-.122,1.374-4.485,4.057-15.234,4.197-31.114-.317-10.398,5.193-10.258,8.816-9.064,1.816.599,3.158,2.146,3.498,4.028.963,5.344,3.183,15.327,3.365-5.054.142-.646.333-1.139.557-1.5v-.002c1.645-2.668,5.098,1.503,5.098,1.503,0,0,4.867,20.625,6.035,2.566l.002-.002c.031-.062,1.467-2.843,3.445-2.004.555.233,1.154.755,1.776,1.7,3.049,2.073-11.237,116.338-31.458,94.355"/>
    <path class="cls-93" d="m960.974,581.637c-.881,3.329-6.874,7.218-6.874,7.218,0,0-.322.171-.601.537-.129.193-.257.428-.322.708-.258.946.064,2.426,2.448,4.639v-.042c3.975,2.191,5.091,5.455,5.178,8.27v.3c.02.129.02.28.02.431,0,.686-.064,1.396-.235,2.146-.044.28-.129.582-.215.903-.171.666-.344,1.159-.473,1.418-.042.149-.087.235-.087.235-.02,0-.02-.022-.042-.042-.022.042-.042.084-.064.129-2.02,4.381-12.737,10.846-23.648,13.725-1.696-3.265-3.178-6.767-4.359-10.482-2.384-7.366-3.695-15.549-3.695-24.141,0-11.836,2.492-22.876,6.831-32.111,1.631-3.609,3.587-6.938,5.777-9.923.193-.28.408-.557.644-.837.515-.73,1.096-1.44,1.676-2.126,1.052,1.396,1.676,3.478,1.116,6.53,0,0-.107,1.03.129,2.384.28,1.567.988,3.564,2.814,4.832.601.408,1.289.752,2.148.968h.02c.044,0,.064.02.109.02,1.653-.02,9.515.344,2.384,9.064-.235.302-.495.624-.752.945,0,0-3.114,7.044,4.426,10.052v-.042c5.005.666,6.186,2.384,5.648,4.295"/>
    <path class="cls-93" d="m1012.414,587.586c0,11.619-2.406,22.445-6.552,31.574-1.718.171-3.393.3-5.003.408-.688.042-1.376.064-2.042.107-2.211.087-4.295.129-6.272.129-.042,0-.064.022-.084.042-1.718,1.525-5.478,2.042-7.755,2.235-19.136-31.68-4.552-49.078,1.312-55.843.213-.238.406-.451.579-.666l3.027-2.708s5.992-4.918,15.443-8.525c.087.149.151.277.215.428,1.396,2.879,2.599,5.95,3.609,9.171,2.255,7.24,3.522,15.25,3.522,23.648"/>
    <path class="cls-87" d="m1042.677,556.765s-2.319.129-5.864.537c-7.109.817-19.245,2.686-27.92,6.636-4.619,2.084-8.25,4.77-9.623,8.183-.022.044-.257,26.334-.451,47.554-2.213.087-4.297.129-6.272.129-.042,0-.064.022-.087.042-3.129.129-5.245.129-8.241-1.283-19.138-31.68-4.663-44.28,1.798-52.325.2-.249.408-.451.581-.666l3.027-2.708s5.992-4.918,15.443-8.527c7.861-2.985,18.128-5.067,29.319-2.619.02,0,.064.022.084.022,1.525.342,3.049.73,4.596,1.265,0,0-.322,2.064,1.46,3.136.515.324,1.225.537,2.148.624"/>
    <path class="cls-31" d="m1078.435,595.25c0,22.476-21.191,40.698-47.332,40.698s-47.329-18.222-47.329-40.698,21.189-40.698,47.329-40.698,47.332,18.222,47.332,40.698"/>
    <path class="cls-19" d="m1095.768,589.859h0c-1.913,5.939-5.722,12.245-12.032,18.859-2.521,2.646-5.444,5.34-8.804,8.081v-.002h-.002c-.036-.102-1.756-4.832-5.391-7.914-.004-.002-.009-.004-.011-.009-1.276-1.079-2.785-1.953-4.543-2.355-.144-.033-.291-.064-.439-.089-.004-.002-.007-.002-.009-.002-.004-.002-.007-.002-.007-.002.035-.084.073-.169.109-.251.009-.02.02-.042.029-.062.027-.067.058-.144.095-.229.672-1.611,2.583-6.521,2.717-10.549.078-2.328-.437-4.361-2.128-5.298-.162-.091-.335-.171-.519-.24-.002-.022-.004-.047-.009-.069-.024-.169-.093-.633-.226-1.307-.657-3.325-2.883-11.765-8.938-14.932-.297-.155-.604-.297-.917-.426h-.002s-.009-.007-.016-.007c.007-.016.011-.033.018-.047.049-.144.202-.604.38-1.278.79-3.03,2.015-10.391-3.868-12.764-.275-.111-.568-.211-.877-.3-.004-.002-.009-.002-.009-.002,0,0-.233-.721-2.239-1.509-.011-.084-.024-.166-.038-.249-.013-.082-.027-.164-.04-.244-1.372-7.784-7.555-8.409-9.857-8.365-.024.002-.047.002-.067.002-.3.007-.526.027-.661.04,4.357-4.306,10.192-8.74,14.08-11.543.12-.084.235-.169.348-.251,24.676,11.228,35.522,27.998,40.258,39.723.164.406.32.806.471,1.198,2.761,7.258,3.138,12.307,3.145,12.391"/>
    <path class="cls-90" d="m1050.367,558.665s9.308,1.487,4.357,14.391c0,0-21.422-1.589-4.357-14.391"/>
    <path class="cls-90" d="m1064.831,589.798s-28.336-.957-10.083-16.743c0,0,8.381,2.264,10.083,16.743"/>
    <path class="cls-90" d="m1067.812,595.229c-.115,2.368-.932,5.771-3.045,10.656-.033.075-.067.149-.102.226-.007.02-.018.042-.027.062-.035.084-.073.169-.109.251,0,0-6.505-.411-9.706-2.701-3.192-2.286-3.098-6.441,10.007-13.925,0,0,.246.009.599.138.923.328,2.568,1.458,2.382,5.293"/>
    <path class="cls-90" d="m1074.93,616.797h0s-6.421,2.133-10.101,2.488c0,0-.806-.029-1.853-.237-3.369-.67-9.215-3.2,1.551-12.622h.009s.004.002.007.002c.044.011.189.049.413.118.806.249,2.648.919,4.57,2.328,2.146,1.574,4.388,4.068,5.404,7.923"/>
    <path class="cls-87" d="m1023.154,584.253c-.013.009-.029.018-.042.029.004-.055.009-.111.011-.166.011.047.02.091.031.138"/>
    <path class="cls-87" d="m1036.364,606.1c-.04.018-.127.058-.246.12-.06.029-.127.064-.202.104-.996.519-3.249,1.751-3.797,2.124-.577.391-1.261,1.855.402,5.207.63,1.27,1.598,2.812,3.036,4.67-.133.302-.972,1.687-1.305,1.345-1.858-1.92-3.365-3.62-4.581-5.129-6.341-7.877-4.665-10.564-2.639-12.273.326-.275,1.261-.801,2.377-1.383.151-.078.308-.16.466-.24,2.153-1.101,4.734-2.299,5.018-2.355.73,2.552,1.283,5.129,1.472,7.81"/>
    <path class="cls-87" d="m1051.792,595.609c-.566,2.049-2.12,4.237-4.048,5.56-.732.502-2.495,1.629-2.819,1.776-.182.082-.264.2-.215.391.466,1.855.766,3.576.932,5.174.229,2.211.195,4.179-.024,5.928-.009.08-.02.162-.031.24-1.265,9.215-7.761,12.222-8.325,12.336.02-.062.02-.095.036-.109,3.624-4.885,4.299-10.8,3.666-16.348,0-.002,0-.004-.002-.009v-.002c-1.043-9.109-5.611-17.234-6.441-18.213-5.533-6.518-10.209.972-10.624,2.546-.022.087-.047.209-.073.364-.035.224-.078.519-.12.874-.428,3.542-1.108,13.121-1.667,20.43-.348,4.559-.648,8.234-.81,9.011-.249,1.194-.815,2.302-1.549,3.294-.675.914-2.171,2.357-4.83,2.748-1.776.26-2.816-.404-3.871-1.367-.855-.779-3.724-6.836-4.352-6.601-1.165.451.59,5.158.67,5.686.477,3.096-2.346,4.699-2.561,4.812-.162.084-.271.018-.317-.144-.016-.051-1.589-6.434-3.562-14.415-1.507-6.108-3.249-13.155-4.703-19.009-.013-.056-.027-.113-.042-.169-.044-.182-.089-.364-.133-.544-.419-1.685-.81-3.258-1.163-4.67v-.002c-.047-.191-.093-.38-.14-.564-.02-.078-.038-.151-.058-.226-.81-3.251-1.376-5.498-1.511-5.992-.304-1.096-.488-1.884-.382-2.366.04-.166.111-.295.226-.388.08-.064.18-.113.304-.142.444-.104.883-.171,1.309-.133,1.134.1,2.199.934,3.176,3.757,3.864,11.17,9.377,22.028,13.472,29.412,1.272,2.297,2.406,4.257,3.311,5.788.462.16.479-.395.522-.601.055-.266.229-2.464.404-5.85.346-6.758.699-18.248.115-28.555-.029-.517-.062-1.028-.095-1.536-.067-1.012-.144-2.006-.233-2.981-.193-2.157.903-4.215,3.058-4.692,1.121-.246,2.233-.007,3.109.579,1.185,1.107,1.611,2.905,1.722,3.431-.002.055-.007.111-.011.166-.502.322-1.001.579-1.432.934-1.17.959-2.615,2.892-3.642,4.856-.162.311-.315.621-.455.93-.564,1.256-.91,2.461-.852,3.371.346,5.46,5.557,4.559,5.085,2.137-.004-.016-.226-1.079-.497-2.386-.091-.442-.189-.91-.286-1.376-.317-1.525-.628-3.007-.701-3.349-.082-.366-.044-.708.164-1.032.233-.368,2.182-4.614,12.222-4.852.51-.013.819-.142.819-.142.621-.451,2.841-4.872,6.92-.064-.599.613-1.958,1.576-1.864,3.884.029.752.293.981.586,1.405.484.701,1.858,2.195,2.865,5.702.1.353.477.983.868.886.735.027,1.815-2.674,2.02-3.556,1.243-5.351-.992-7.764-2.066-9.446-3.695-5.788-7.124-3.946-7.306-3.864,0,.002-.002.002-.004.002-1.061.533-1.849,1.329-2.428,2.06-.579.73-.948,1.392-1.167,1.658-.073.087-.169.184-.169.184-.022-.02.162-.664.817-1.771,1.196-2.02,3.103-3.611,3.496-3.831.002-.002.007-.004.011-.007,3.125-2.188,8.667-3.749,12.791,3.84-.002,0,0,0,0,0,.253.466.499.963.741,1.5.699,1.556,1.232,3.054,1.625,4.465,1.083,3.908,1.081,7.164.522,9.188"/>
    <path class="cls-70" d="m1107.863,635.317s-28.387,39.686-27.119,74.715c0,0,.013.608.011,1.529-.007,4.423-.344,16.075-4.073,2.439-.313-1.139-.648-2.455-1.008-3.968-5.577-23.371,22.05-80.545,22.05-80.545,0,0,2.85-1.025,5.575-.994,1.856.02,3.655.528,4.459,2.182.506,1.041.619,2.535.104,4.643"/>
    <path class="cls-70" d="m997.105,699.978c-.202-.175-25.967-22.694-53.941-25.523-28.085-2.836-133.423-1.447-51.28-14.515,81.999-13.046,105.141,39.854,105.221,40.039"/>
    <path class="cls-93" d="m1034.387,551.719c-11.19-2.45-21.457-.366-29.319,2.619-9.45,3.609-15.443,8.527-15.443,8.527l-3.027,2.705c-.173.215-.366.431-.582.666.044.022.064.022.109-.02l2.963-2.643s6.314-5.176,16.195-8.805c7.733-2.814,17.676-4.705,28.502-2.364.042.022.084,0,.107-.042.173-.193.366-.408.579-.624-.02,0-.064-.02-.084-.02m-77.278,53.866c-1.396-1.396-2.643-2.834-3.651-4.339-4.812.646-13.854,5.606-21.759,10.482-8.054,4.96-14.948,9.817-14.97,9.817.453.257.881.471,1.354.686,4.854,2.084,11.448,1.676,17.977-.02,10.911-2.879,21.628-9.344,23.648-13.725.02-.044.042-.087.064-.129.02.02.02.042.042.042,0,0,.042-.087.087-.235-.022,0-.044-.022-.044-.022-.965-.839-1.889-1.676-2.748-2.557m-32.97-50.774c.901.064,5.478.366,10.695.666,2.191.129,4.512.257,6.703.364,2.191.408,3.951.238,5.131.453.109.02.238.042.324.042-1.827-1.267-2.535-3.265-2.814-4.832-.235-1.354-.129-2.384-.129-2.384.559-3.052-.064-5.134-1.116-6.53-2.126-2.814-6.057-2.921-6.057-2.921-.173,0-.344-.022-.517-.044-.257-.022-.515-.022-.772-.042-.257-.022-.495-.022-.752-.022-2.577-.087-5.304.064-8.074.431-17.569,2.233-37.373,11.898-37.373,11.898.408.107.817.235,1.225.364,17.525,2.579,31.722,2.557,33.012,2.557h.515Z"/>
    <path class="cls-93" d="m1100.002,562.778c.644-26.74-22.359-52.192-30.262-58.227-105.201,55.177-224.984-7.324-258.79-27.47-.537,4.918-1.74,12.629-4.554,20.725v.022c-.022.022-.042.042-.042.087-6.703,12.458-11.792,24.764-15.378,34.559-3.587,9.814-5.671,17.138-6.359,19.631-.042.129.151.215.238.084,5.154-8.891,10.094-15.205,14.648-19.651,6.035-5.886,14.282-8.227,22.079-6.916,4.339.73,8.547,2.599,12.114,5.626,14.604,12.349,37.737,18.235,56.917,21.005-.408-.129-.817-.257-1.225-.364,0,0,19.804-9.666,37.373-11.898,2.77-.366,5.498-.517,8.074-.431.257,0,.495,0,.752.022.257.02.515.02.772.042.173.022.344.044.517.044,0,0,3.931.107,6.057,2.921,1.052,1.396,1.676,3.478,1.116,6.53,0,0-.106,1.03.129,2.384.28,1.567.988,3.564,2.814,4.832.601.408,1.287.752,2.146.968h.022c.042,0,.064.02.109.02,1.653-.02,9.515.344,2.384,9.064-.238.302-.495.624-.752.946,0,0-3.114,7.044,4.426,10.052v-.042c5.003.666,6.186,2.384,5.648,4.295-.881,3.329-6.874,7.218-6.874,7.218,0,0-.322.171-.601.537-.129.193-.258.428-.322.708-.257.945.064,2.426,2.448,4.639v-.042c3.973,2.191,5.091,5.455,5.176,8.27v.3c.022.129.022.28.022.431,0,.686-.064,1.396-.237,2.146-.042.28-.129.581-.213.903-.173.666-.344,1.159-.473,1.418-.044.149-.086.235-.086.235-.022,0-.022-.022-.042-.042-.022.042-.044.084-.064.129-2.02,4.381-12.737,10.846-23.648,13.725-6.53,1.696-13.123,2.104-17.977.02-.473-.215-.901-.428-1.354-.686l-63.553,10.889c-17.074-.537-40.68-8.569-55.606-18.128-6.616-4.21-11.512-8.74-13.425-13.015-3.908-8.849-4.51-19.846-3.114-31.294-3.287,21.327-4.23,40.616-3.436,58.012,24.312,10.032,69.632,22.445,143.065,20.92,111.751-2.341,135.656,13.123,195.989-40.7-8.893-14.371-17.032-29.017-16.646-45.45m-62.286-14.69c-.087.087-.022.215.084.215-.149.02-.257.02-.342.02.084-.084.171-.171.257-.235m53.695,50.925c-1.998,3.158-4.51,6.379-7.668,9.686-2.535,2.643-5.455,5.349-8.805,8.076l-.022.022c-.408.129-6.53,2.126-10.074,2.47h-.022c-.084,0-.859-.044-1.847-.237-3.349-.666-9.129-3.156,1.332-12.413.087-.087.044-.215-.064-.215-1.287-.129-6.55-.688-9.364-2.641-.022-.022-.086-.044-.129,0-3.03,1.76-6.079,3.329-9.106,4.745-1.569.71-3.116,1.396-4.683,2.042-2.834,1.159-5.648,2.191-8.44,3.092-.946.322-1.911.601-2.856.881-2.579.772-5.134,1.438-7.626,2.02-2.233.515-4.446.943-6.594,1.309-1.438.257-2.856.473-4.23.666-1.827.257-3.609.473-5.349.644-1.718.173-3.393.302-5.005.408-.686.044-1.374.064-2.04.109-2.213.084-4.295.129-6.272.129-.042,0-.064.02-.084.042-1.72,1.525-5.478,2.04-7.755,2.233-19.136-31.68-4.554-49.076,1.31-55.843.215-.235.408-.451.581-.666l3.027-2.705s5.992-4.918,15.443-8.527c7.861-2.985,18.128-5.069,29.319-2.619.02,0,.064.02.084.02,1.096-1.116,2.535-2.297,3.718-3.458h-.064c2.619-2.319,6.807-5.948,13.423-11.49.107-.087.215-.173.3-.28.022.022.044.022.044.022,24.678,11.233,35.524,28.007,40.249,39.735.171.386.322.795.473,1.181,2.77,7.26,3.136,12.307,3.156,12.393-.965,2.985-2.384,6.035-4.359,9.171"/>
    <path class="cls-93" d="m1037.804,548.313c-.151.022-.258.022-.344.022.087-.087.173-.173.258-.237-.084.087-.02.215.087.215"/>
    <g class="cls-103">
      <rect class="cls-88" x="1061.779" y="503.25" width="5.402" height="1.54"/>
      <rect class="cls-88" x="1061.779" y="504.79" width="5.402" height=".113"/>
      <rect class="cls-91" x="1061.779" y="504.901" width="5.402" height=".113"/>
      <rect class="cls-89" x="1061.779" y="505.014" width="5.402" height=".113"/>
      <rect class="cls-95" x="1061.779" y="505.127" width="5.402" height=".113"/>
      <rect class="cls-95" x="1061.779" y="505.241" width="5.402" height=".113"/>
      <rect class="cls-92" x="1061.779" y="505.354" width="5.402" height=".113"/>
      <rect class="cls-69" x="1061.779" y="505.465" width="5.402" height=".113"/>
      <rect class="cls-71" x="1061.779" y="505.578" width="5.402" height=".113"/>
      <rect class="cls-72" x="1061.779" y="505.691" width="5.402" height=".113"/>
      <rect class="cls-76" x="1061.779" y="505.804" width="5.402" height=".113"/>
      <rect class="cls-77" x="1061.779" y="505.915" width="5.402" height=".113"/>
      <rect class="cls-78" x="1061.779" y="506.029" width="5.402" height=".113"/>
      <rect class="cls-75" x="1061.779" y="506.142" width="5.402" height=".113"/>
      <rect class="cls-79" x="1061.779" y="506.255" width="5.402" height=".113"/>
      <rect class="cls-73" x="1061.779" y="506.368" width="5.402" height=".113"/>
      <rect class="cls-74" x="1061.779" y="506.479" width="5.402" height=".113"/>
      <rect class="cls-82" x="1061.779" y="506.592" width="5.402" height=".113"/>
      <rect class="cls-83" x="1061.779" y="506.705" width="5.402" height=".113"/>
      <rect class="cls-84" x="1061.779" y="506.819" width="5.402" height=".113"/>
      <rect class="cls-85" x="1061.779" y="506.932" width="5.402" height=".113"/>
      <rect class="cls-86" x="1061.779" y="507.043" width="5.402" height=".113"/>
    </g>
    <path class="cls-88" d="m1103.133,330.845s-.002.004-.004.009c-.382.768-.874,1.551-1.463,2.355-.002.004-.004.009-.009.011-1.352,1.844-3.205,3.782-5.364,5.819-2.903,2.366-6.383,4.226-10.403,5.316-12.362,3.351-25.783,6.245-40.234,8.516-37.351,5.868-81.571,7.566-132.105,2.179h-.002c-41.566-4.43-87.399-13.652-137.199-29.288-3.615-1.136-6.876-2.905-9.623-5.147-3.26-4.625-5.32-6.849-5.32-6.849,52.396-54.864,211.994-25.368,232.503-20.852,2.044.451,98.556,24.977,100.511,25.725,9.277,3.547,11.013,7.566,8.711,12.205"/>
    <path class="cls-81" d="m1036.655,375.795c6.407-.87,12.93,2.057,16.581,7.371,4.301,6.254,2.743,13.084,2.304,14.739-.368,1.394-2.055,7.757-8.292,11.055-7.244,3.833-14.586.328-16.12-.462-1.456-.748-6.603-3.5-8.753-9.672-2.901-8.327,2.253-15.441,2.763-16.122.901-1.198,4.739-5.988,11.517-6.909"/>
    <path class="cls-81" d="m918.965,381.273c7.797-1.059,15.736,2.504,20.179,8.969,5.236,7.613,3.338,15.922,2.803,17.937-.448,1.696-2.499,9.439-10.09,13.454-8.818,4.663-17.751.399-19.62-.562-1.769-.91-8.034-4.261-10.651-11.772-3.529-10.134,2.741-18.79,3.365-19.62,1.094-1.458,5.764-7.286,14.014-8.407"/>
    <path class="cls-22" d="m1037.417,391.711c0,2.927-1.545,5.302-3.449,5.302s-3.449-2.375-3.449-5.302,1.545-5.302,3.449-5.302,3.449,2.375,3.449,5.302"/>
    <path class="cls-22" d="m921.162,399.316c0,3.793-2.071,6.867-4.625,6.867s-4.623-3.074-4.623-6.867,2.071-6.867,4.623-6.867,4.625,3.074,4.625,6.867"/>
    <path class="cls-90" d="m1048.128,557.155s-7.191,1.407-11.861.863c-1.454-.169-2.663-.526-3.336-1.172-.799-.77-.839-1.951.371-3.709.158-.229.344-.464.55-.701,1.143-1.321,2.93-2.748,4.339-4.137.013-.011.024-.022.033-.033,1.159-.118,8.285-.506,9.825,8.396.013.08.027.162.04.244.013.082.027.164.038.249"/>
    <path class="cls-32" d="m1032.487,482.705c-3.505.779-6.825,1.365-9.75,1.804-6.78,1.017-11.457,1.241-11.457,1.241,0,0-47.889,5.977-53.007-14.717,0,0,22.072-47.596,59.03-54.986,0,0,6.878-.919,15.811-.26l.131.011.133.009.016.002c.351.027.704.055,1.059.089l.047.002c15.228,1.383,35.484,7.517,38.387,30.004"/>
    <path class="cls-81" d="m1015.431,446.768s-13.436,2.492-17.809-1.744c-4.375-4.237,16.313-11.714,17.809,1.744"/>
    <path class="cls-81" d="m1048.524,441.784s14.264-2.992,12.269-9.222c-1.993-6.232-13.572,4.985-12.269,9.222"/>
    <path class="cls-86" d="m1037.804,548.313c-.151.022-.258.022-.344.022.087-.087.173-.173.258-.237-.084.087-.02.215.087.215"/>
    <path class="cls-94" d="m671.063,278.853c-3.183,5.815-5.939,13.092-2.987,18.244,3.72,6.49,16.462,9.544,96.341-7.894,48.31-10.547,78.712-19.318,98.689-25.499,52.958-16.386,23.721-11.805,69.775-27.099,16.628-5.522,32.597-10.156,34.461-20.592,1.294-7.238-4.705-14.42-9.814-19.205l-153.314,11.31-133.15,70.735Z"/>
    <path class="cls-87" d="m661.733,315.181c-.464,0-.923-.2-1.241-.588-.242-.297-.362-.657-.36-1.014,0-.462.2-.921.586-1.236l100.651-82.325-109.997,78.466c-.719.513-1.72.346-2.233-.375-.2-.28-.297-.604-.297-.925,0-.499.233-.992.67-1.305l101.797-72.615-97.023,61.505c-.746.475-1.736.253-2.208-.493-.473-.748-.251-1.736.495-2.211l146.478-92.857c.056-.038.113-.071.173-.1.078-.038.16-.071.244-.098h.004c.027-.009.053-.016.08-.022h.004c.051-.013.102-.022.151-.031h.007c.064-.009.129-.013.195-.013.002,0,.004,0,.004-.002.016,0,.031,0,.047.002h169.835c.883,0,1.6.715,1.6,1.6s-.717,1.6-1.6,1.6h-77.234l91.856,3.174c.863.031,1.545.741,1.545,1.598,0,.02,0,.038-.002.058-.031.883-.766,1.574-1.653,1.545l-131.557-4.548,128.499,12.247c.828.08,1.449.777,1.449,1.594,0,.049-.004.1-.009.153-.084.879-.866,1.525-1.744,1.44l-147.71-14.08,127.979,24.64c.766.149,1.298.819,1.298,1.571,0,.1-.009.202-.029.304-.166.868-1.008,1.436-1.873,1.267l-139.849-26.924,110.701,38.993c.659.233,1.07.85,1.07,1.509,0,.178-.029.357-.091.533-.293.835-1.207,1.272-2.042.977l-118.926-41.89,81.562,54.31c.462.309.712.815.712,1.332,0,.306-.087.615-.269.888-.491.735-1.483.934-2.219.444l-85.537-56.957,46.992,70.256c.182.271.271.579.271.886,0,.517-.249,1.025-.71,1.334-.735.491-1.729.293-2.219-.442l-48.173-72.018,4.965,83.029c.002.033.002.067.002.098,0,.841-.655,1.545-1.505,1.596-.883.051-1.64-.619-1.693-1.503l-4.869-81.438-34.832,92.226c-.311.826-1.234,1.243-2.062.932-.641-.244-1.036-.852-1.034-1.5,0-.186.033-.377.102-.564l33.311-88.2-72.331,99.031c-.522.715-1.523.87-2.235.348-.431-.313-.657-.801-.657-1.294,0-.328.1-.657.308-.941l67.307-92.153-99.242,98.711c-.626.624-1.638.621-2.262-.007-.311-.311-.466-.719-.466-1.127,0-.411.158-.821.471-1.134l90.304-89.825-112.721,92.197c-.297.244-.655.362-1.012.362"/>
    <g class="cls-102">
      <rect class="cls-104" x="755.06" y="272.225" width="355.635" height="88.711"/>
    </g>
    <g class="cls-101">
      <rect class="cls-107" x="830.014" y="282.383" width="197.212" height="73.279"/>
    </g>
    <path class="cls-87" d="m823.31,283.761l-45.663-51.105,34.674-5.336,18.883-11.734,8.314-.977-8.314,67.231,128.354,385.775c.57,1.716-.235,3.587-1.873,4.35-1.926.901-4.208-.078-4.883-2.093l-129.493-386.113Z"/>
    <polygon class="cls-93" points="672.877 279.173 703.496 265.624 722.914 252.074 734.078 252.074 751.722 246.206 777.647 232.656 812.322 227.321 831.204 215.587 871.214 210.892 884.764 205.024 920.719 200.863 956.034 197.341 802.363 197.341 672.877 279.173"/>
    <path class="cls-19" d="m960.824,603.695c0,.688-.064,1.396-.235,2.148-.044.28-.131.579-.215.901-.151.453-.322.903-.515,1.396-.022.064-.067.151-.087.215-.022.042-.044.087-.064.129-2.02,4.381-12.737,10.846-23.648,13.725-6.53,1.696-13.123,2.104-17.977.022-.473-.215-.901-.431-1.354-.688,0,0,1.054-7.109.925-16.861-.109-10.351-1.547-23.69-6.96-34.537-4.059-8.161-10.374-14.906-20.081-17.891-.408-.129-.817-.257-1.225-.366,0,0,19.804-9.663,37.373-11.898,2.77-.364,5.498-.515,8.074-.428.26,0,.495,0,.752.02.257.022.515.022.775.044.171.02.342.042.515.042l.193.193c.559.537,2.255,2.213,4.188,4.854.901,1.245,1.869,2.728,2.792,4.403,0,0-.107,1.032.129,2.384.28,1.569.988,3.567,2.814,4.834.601.406,1.287.75,2.148.965h.02c.044,0,.064.022.109.022.579.149,1.203.235,1.911.28,0,0,4.703.686,2.384,5.713-.386.881-1.01,1.911-1.911,3.072-.237.3-.495.621-.752.943,0,0-3.114,7.047,4.426,10.052.235.087.493.173.75.26,4.059,1.352,3.458,3.671,1.891,5.862-.215.302-.431.601-.688.881-1.181,1.418-2.555,2.728-3.072,3.587l-.02.022v.022c-.129.213-.215.428-.215.579,0,.042.022.064.022.107.02.064.064.109.107.151,0,0-.322.171-.601.537-.129.193-.257.428-.322.708-.257.945.064,2.428,2.448,4.641.601.537,1.332,1.139,2.213,1.782,0,0,2.663,2.406,2.963,6.443v.302c.022.129.022.277.022.428"/>
    <path class="cls-96" d="m960.974,581.637c-.881,3.329-6.874,7.218-6.874,7.218l.022-.302.064-.537v-.02l.257-2.45.624-5.797.149-1.463v-.02l.109-.881v-.042c5.005.666,6.186,2.384,5.648,4.295"/>
    <path class="cls-96" d="m944.049,549.119s-1.698-1.589-3.436-3.564c-1.784-2.02-3.609-4.403-3.738-5.886,0,0,3.931.107,6.057,2.921,1.052,1.396,1.676,3.48,1.116,6.53"/>
    <path class="cls-96" d="m951.653,566.388l-2.663-9.022v-.042h.28c1.653-.022,9.515.344,2.384,9.064"/>
    <path class="cls-96" d="m948.998,557.313s-.067,6.294,2.661,9.082l-2.661-9.082Z"/>
    <path class="cls-96" d="m955.347,577.903s-3.118,9.224-1.252,10.951l1.252-10.951Z"/>
    <path class="cls-96" d="m960.802,602.965v.3c0,.881-.087,1.72-.215,2.45-.064.364-.149.708-.215,1.03-.171.666-.342,1.161-.471,1.418-.044.151-.087.235-.087.235-.022,0-.022-.02-.044-.042-1.116-.881-1.997-1.804-2.663-2.77-2.211-3.136-2.275-6.487-1.997-8.636.173-1.223.453-2.04.517-2.211v-.044c3.973,2.191,5.089,5.455,5.176,8.27"/>
  </g>
</svg>